<?xml version="1.0" encoding="utf-8"?>
<!-- Generator: Adobe Illustrator 15.1.0, SVG Export Plug-In . SVG Version: 6.00 Build 0)  -->
<!DOCTYPE svg PUBLIC "-//W3C//DTD SVG 1.1//EN" "http://www.w3.org/Graphics/SVG/1.1/DTD/svg11.dtd">
<svg version="1.1" id="Layer_1" xmlns="http://www.w3.org/2000/svg" xmlns:xlink="http://www.w3.org/1999/xlink" x="0px" y="0px"
	 width="22.07px" height="20.599px" viewBox="0.362 605.279 22.07 20.599" enable-background="new 0.362 605.279 22.07 20.599"
	 xml:space="preserve">
<title>56 -Woman Handbag- (Outline)</title>
<desc>Created with Sketch.</desc>
<g>
	<g transform="translate(-719.000000, -950.000000)">
		<g transform="translate(719.000000, 950.000000)">
			<path d="M22.064,620.668c-0.03-0.178-0.184-0.308-0.363-0.308h-1.844c-0.203,0-0.368,0.165-0.368,0.368
				c0,1.058-0.645,1.995-1.609,2.386c-0.139,0.057-0.23,0.191-0.23,0.342v1.687c0,0.202,0.165,0.368,0.368,0.368h1.979
				c1.505,0,2.65-1.353,2.402-2.837L22.064,620.668z M18.385,623.692c1.003-0.498,1.694-1.474,1.819-2.597h1.185l0.284,1.7
				c0.172,1.036-0.626,1.979-1.677,1.979h-1.61V623.692z"/>
			<path d="M2.936,620.36H1.093c-0.18,0-0.333,0.13-0.363,0.308l-0.334,2.006c-0.247,1.484,0.897,2.837,2.402,2.837h1.978
				c0.203,0,0.368-0.166,0.368-0.368v-1.687c0-0.15-0.091-0.285-0.23-0.342c-0.965-0.391-1.609-1.328-1.609-2.386
				C3.304,620.525,3.139,620.36,2.936,620.36z M4.407,623.692v1.082h-1.61c-1.051,0-1.85-0.942-1.676-1.979l0.283-1.7h1.185
				C2.714,622.219,3.405,623.194,4.407,623.692z"/>
			<path d="M9.925,625.143v-14.764c0-0.176,0.143-0.317,0.318-0.317h2.307c0.175,0,0.317,0.142,0.317,0.317v14.764H9.925z
				 M13.236,625.878c0.203,0,0.368-0.165,0.368-0.367v-15.132c0-0.582-0.472-1.053-1.053-1.053h-2.307
				c-0.582,0-1.054,0.471-1.054,1.053v15.132c0,0.202,0.165,0.367,0.368,0.367H13.236z"/>
			<path d="M4.407,623.692v1.082c0,0.203,0.165,0.368,0.368,0.368h4.782c0.204,0,0.368-0.165,0.368-0.368v-14.346
				c0-0.203-0.164-0.367-0.368-0.367H4.462c-1.127,0-2.081,0.867-2.263,2.038l-0.819,8.594c-0.02,0.216,0.15,0.402,0.367,0.402
				h0.843C2.714,622.219,3.405,623.194,4.407,623.692z M5.144,624.406v-0.95c0-0.15-0.091-0.285-0.23-0.342
				c-0.965-0.391-1.609-1.328-1.609-2.386c0-0.203-0.165-0.368-0.368-0.368H2.151l0.778-8.169c0.125-0.801,0.778-1.395,1.533-1.395
				H9.19v13.609H5.144z"/>
			<path d="M20.204,621.096h0.843c0.217,0,0.386-0.187,0.366-0.402l-0.817-8.572c-0.185-1.192-1.138-2.06-2.265-2.06h-5.096
				c-0.203,0-0.368,0.164-0.368,0.367v14.346c0,0.204,0.166,0.368,0.368,0.368h4.782c0.203,0,0.368-0.164,0.368-0.368v-1.082
				C19.389,623.194,20.079,622.219,20.204,621.096z M20.642,620.36h-0.786c-0.204,0-0.368,0.165-0.368,0.368
				c0,1.058-0.645,1.994-1.61,2.386c-0.139,0.057-0.229,0.191-0.229,0.342v0.95h-4.046v-13.609h4.728
				c0.752,0,1.402,0.59,1.534,1.406L20.642,620.36z"/>
			<path d="M15.075,616.682h3.679c0.203,0,0.368-0.164,0.368-0.367s-0.165-0.368-0.368-0.368h-3.679
				c-0.203,0-0.368,0.165-0.368,0.368S14.872,616.682,15.075,616.682z"/>
			<path d="M4.04,616.682h3.678c0.203,0,0.368-0.164,0.368-0.367s-0.165-0.368-0.368-0.368H4.04c-0.204,0-0.368,0.165-0.368,0.368
				S3.837,616.682,4.04,616.682z"/>
			<path d="M6.983,617.233c0,0.306-0.247,0.553-0.552,0.553s-0.552-0.247-0.552-0.553c0-0.305,0.247-0.552,0.552-0.552
				S6.983,616.929,6.983,617.233z M7.719,617.233c0-0.71-0.577-1.287-1.288-1.287c-0.711,0-1.287,0.577-1.287,1.287
				c0,0.712,0.576,1.287,1.287,1.287C7.142,618.521,7.719,617.945,7.719,617.233z"/>
			<path d="M16.914,617.233c0,0.306-0.247,0.553-0.552,0.553c-0.304,0-0.551-0.247-0.551-0.553c0-0.305,0.247-0.552,0.551-0.552
				C16.667,616.682,16.914,616.929,16.914,617.233z M17.65,617.233c0-0.71-0.576-1.287-1.288-1.287
				c-0.711,0-1.287,0.577-1.287,1.287c0,0.712,0.576,1.287,1.287,1.287C17.073,618.521,17.65,617.945,17.65,617.233z"/>
			<path d="M14.433,610.797h1.745c0.203,0,0.368-0.165,0.368-0.368v-0.435c0-0.375-0.051-0.766-0.151-1.084
				c-0.669-2.129-2.716-3.631-4.999-3.631s-4.33,1.502-4.999,3.631c-0.1,0.319-0.15,0.71-0.15,1.084v0.435
				c0,0.203,0.164,0.368,0.368,0.368H8.36c0.197,0,0.359-0.156,0.367-0.353c0.058-1.366,1.072-2.466,2.411-2.592
				c0.087-0.008,0.173-0.012,0.259-0.012c0.086,0,0.172,0.003,0.258,0.012c1.339,0.126,2.353,1.226,2.411,2.592
				C14.074,610.641,14.236,610.797,14.433,610.797z M11.724,607.12c-0.11-0.011-0.219-0.016-0.328-0.016
				c-0.109,0-0.219,0.005-0.328,0.016c-1.591,0.15-2.823,1.377-3.044,2.941H6.983v-0.067c0-0.304,0.042-0.622,0.117-0.864
				c0.573-1.821,2.336-3.115,4.297-3.115s3.724,1.294,4.297,3.116c0.076,0.24,0.117,0.559,0.117,0.863v0.067h-1.042
				C14.547,608.496,13.316,607.271,11.724,607.12z"/>
		</g>
	</g>
</g>
</svg>
