<?xml version="1.0" encoding="utf-8"?>
<!-- Generator: Adobe Illustrator 15.1.0, SVG Export Plug-In . SVG Version: 6.00 Build 0)  -->
<!DOCTYPE svg PUBLIC "-//W3C//DTD SVG 1.1//EN" "http://www.w3.org/Graphics/SVG/1.1/DTD/svg11.dtd">
<svg version="1.1" id="Layer_1" xmlns="http://www.w3.org/2000/svg" xmlns:xlink="http://www.w3.org/1999/xlink" x="0px" y="0px"
	 width="18.827px" height="18.305px" viewBox="74.41 551.461 18.827 18.305" enable-background="new 74.41 551.461 18.827 18.305"
	 xml:space="preserve">
<title>automotive-auto-machine</title>
<path d="M90.623,558.261H77.025c-1.444,0-2.615,1.17-2.615,2.613v3.662c0,0.866,0.703,1.568,1.569,1.568h15.689
	c0.867,0,1.569-0.702,1.569-1.568v-3.662C93.238,559.431,92.067,558.261,90.623,558.261z M92.192,564.536
	c0,0.289-0.234,0.522-0.523,0.522H75.979c-0.289,0-0.523-0.233-0.523-0.522v-3.662c0-0.865,0.703-1.568,1.569-1.568h13.598
	c0.866,0,1.569,0.703,1.569,1.568V564.536z M77.025,557.365l-1.046-0.303l1.255-4.111c0.266-0.884,1.08-1.49,2.003-1.49h9.173
	c0.923,0,1.737,0.606,2.003,1.49l1.255,4.111l-1.045,0.303l-1.234-4.115c-0.131-0.433-0.525-0.732-0.978-0.743h-9.173
	c-0.46,0.001-0.866,0.303-0.999,0.743L77.025,557.365z M78.594,567.15h1.046v1.046c0,0.867-0.703,1.569-1.569,1.569h-1.046
	c-0.866,0-1.569-0.702-1.569-1.569v-1.046h1.046v1.046c0,0.289,0.234,0.523,0.523,0.523h1.046c0.289,0,0.523-0.234,0.523-0.523
	V567.15z M91.146,567.15h1.046v1.046c0,0.867-0.703,1.569-1.569,1.569h-1.046c-0.866,0-1.569-0.702-1.569-1.569v-1.046h1.046v1.046
	c0,0.289,0.234,0.523,0.522,0.523h1.046c0.289,0,0.523-0.234,0.523-0.523V567.15z M78.071,560.353c-0.866,0-1.569,0.701-1.569,1.568
	c0,0.866,0.703,1.569,1.569,1.569c0.867,0,1.569-0.703,1.569-1.569C79.64,561.054,78.938,560.353,78.071,560.353z M78.071,562.444
	c-0.289,0-0.523-0.234-0.523-0.523s0.234-0.523,0.523-0.523c0.289,0,0.523,0.234,0.523,0.523S78.36,562.444,78.071,562.444z
	 M89.576,560.353c-0.866,0-1.569,0.701-1.569,1.568c0,0.866,0.703,1.569,1.569,1.569c0.867,0,1.569-0.703,1.569-1.569
	C91.146,561.054,90.443,560.353,89.576,560.353z M89.576,562.444c-0.289,0-0.522-0.234-0.522-0.523s0.234-0.523,0.522-0.523
	c0.289,0,0.523,0.234,0.523,0.523S89.865,562.444,89.576,562.444z M81.209,560.874h5.23v1.047h-5.23V560.874z M81.209,562.967h5.23
	v1.047h-5.23V562.967z"/>
</svg>
