<?xml version="1.0" encoding="utf-8"?>
<!-- Generator: Adobe Illustrator 15.1.0, SVG Export Plug-In . SVG Version: 6.00 Build 0)  -->
<!DOCTYPE svg PUBLIC "-//W3C//DTD SVG 1.1//EN" "http://www.w3.org/Graphics/SVG/1.1/DTD/svg11.dtd">
<svg version="1.1" id="Layer_1" xmlns="http://www.w3.org/2000/svg" xmlns:xlink="http://www.w3.org/1999/xlink" x="0px" y="0px"
	 width="14.92px" height="14.92px" viewBox="18.595 610.652 14.92 14.92" enable-background="new 18.595 610.652 14.92 14.92"
	 xml:space="preserve">
<path d="M32.272,617.615c0.137,0,0.249-0.111,0.249-0.249v-0.746h0.746c0.107,0,0.201-0.068,0.235-0.169s0-0.213-0.085-0.277
	l-7.211-5.471c-0.089-0.067-0.212-0.067-0.301,0l-7.211,5.471c-0.085,0.064-0.119,0.176-0.085,0.277
	c0.034,0.101,0.129,0.169,0.236,0.169h0.746v0.746c0,0.138,0.111,0.249,0.249,0.249h0.249v4.476h-0.249
	c-0.137,0-0.249,0.111-0.249,0.249v0.746h-0.249c-0.138,0-0.249,0.111-0.249,0.248v0.746h-0.249c-0.137,0-0.249,0.112-0.249,0.249
	v0.994c0,0.138,0.111,0.249,0.249,0.249h14.423c0.137,0,0.249-0.111,0.249-0.249v-0.994c0-0.137-0.111-0.249-0.249-0.249h-0.249
	v-0.746c0-0.137-0.111-0.248-0.249-0.248h-0.249v-0.746c0-0.138-0.111-0.249-0.249-0.249h-0.249v-4.476H32.272z M32.023,617.118
	h-0.249H30.78h-0.249v-0.498h1.492V617.118z M30.282,622.091c-0.137,0-0.249,0.111-0.249,0.249v0.746h-0.995v-0.746
	c0-0.138-0.111-0.249-0.249-0.249h-0.249v-4.476h0.249c0.138,0,0.249-0.111,0.249-0.249v-0.746h0.995v0.746
	c0,0.138,0.111,0.249,0.249,0.249h0.249v4.476H30.282z M25.558,623.086v-0.746c0-0.138-0.111-0.249-0.249-0.249h-0.249v-4.476h0.249
	c0.138,0,0.249-0.111,0.249-0.249v-0.746h0.994v0.746c0,0.138,0.111,0.249,0.249,0.249h0.249v4.476h-0.249
	c-0.138,0-0.249,0.111-0.249,0.249v0.746H25.558z M22.077,623.086v-0.746c0-0.138-0.111-0.249-0.249-0.249H21.58v-4.476h0.249
	c0.137,0,0.249-0.111,0.249-0.249v-0.746h0.995v0.746c0,0.138,0.111,0.249,0.249,0.249h0.249v4.476H23.32
	c-0.138,0-0.249,0.111-0.249,0.249v0.746H22.077z M24.564,622.091h-0.498v-4.476h0.498V622.091z M24.812,617.118h-0.995h-0.249
	v-0.498h1.492v0.498H24.812z M23.569,622.588h0.249h0.995h0.249v0.498h-1.492V622.588z M28.045,622.091h-0.498v-4.476h0.498V622.091
	z M28.293,617.118h-0.995H27.05v-0.498h1.492v0.498H28.293z M27.05,622.588h0.249h0.995h0.249v0.498H27.05V622.588z M26.055,611.213
	l6.472,4.91h-0.255h-1.99h-1.492h-1.989h-1.492H23.32h-1.492h-1.99h-0.255L26.055,611.213z M21.58,616.62v0.498h-0.249h-0.995
	h-0.249v-0.498H21.58z M20.585,617.615h0.498v4.476h-0.498V617.615z M20.088,622.588h0.249h0.995h0.249v0.498h-1.492V622.588z
	 M33.018,625.075H19.093v-0.498h0.249h13.428h0.249V625.075z M19.59,624.08v-0.497h0.249h1.99h1.492h1.989h1.492h1.989h1.492h1.99
	h0.249v0.497H19.59z M30.531,623.086v-0.498h0.249h0.995h0.249v0.498H30.531z M31.526,622.091h-0.498v-4.476h0.498V622.091z"/>
<path d="M26.055,615.377c0.686,0,1.243-0.558,1.243-1.243s-0.558-1.243-1.243-1.243s-1.243,0.558-1.243,1.243
	S25.37,615.377,26.055,615.377z M26.055,613.388c0.411,0,0.746,0.335,0.746,0.746s-0.335,0.746-0.746,0.746
	s-0.746-0.335-0.746-0.746S25.644,613.388,26.055,613.388z"/>
</svg>
