<?xml version="1.0" encoding="utf-8"?>
<!-- Generator: Adobe Illustrator 15.1.0, SVG Export Plug-In  -->
<!DOCTYPE svg PUBLIC "-//W3C//DTD SVG 1.1//EN" "http://www.w3.org/Graphics/SVG/1.1/DTD/svg11.dtd" [
	<!ENTITY ns_flows "http://ns.adobe.com/Flows/1.0/">
]>
<svg version="1.1"
	 xmlns="http://www.w3.org/2000/svg" xmlns:xlink="http://www.w3.org/1999/xlink" xmlns:a="http://ns.adobe.com/AdobeSVGViewerExtensions/3.0/"
	 x="0px" y="0px" width="18px" height="18px" viewBox="0 0 18 18" enable-background="new 0 0 18 18" xml:space="preserve">
<defs>
</defs>
<path fill="#010101" d="M0.006,17.378c0.006,0.084,0.028,0.17,0.036,0.17h0.001c0.007,0.036,0.031,0.119,0.063,0.182
	c0.048,0.09,0.104,0.151,0.116,0.16C0.241,17.915,0.291,17.967,0.325,18c0.061,0.053,0.132,0.098,0.167,0.107
	c0.039,0.024,0.1,0.055,0.148,0.071c0.115,0.039,0.227,0.058,0.352,0.058h16.457c0.126,0,0.239-0.018,0.354-0.058
	c0.044-0.016,0.107-0.046,0.102-0.048c0.081-0.034,0.15-0.079,0.222-0.141c0.023-0.022,0.069-0.071,0.067-0.071
	c0.038-0.038,0.094-0.1,0.141-0.188c0.033-0.063,0.056-0.14,0.041-0.113c0.031-0.064,0.054-0.153,0.061-0.247
	c0.12-2.634-1.711-4.863-2.093-5.045c-0.381-0.183-3.284-1.244-4.709-1.756c0.111-0.107,0.218-0.222,0.313-0.347
	c0.001-0.001,0.001-0.001,0.002-0.002c0.001-0.001,0.003-0.004,0.004-0.006c0.001-0.002,0.003-0.004,0.004-0.005
	s0.001-0.002,0.001-0.003c0.444-0.537,0.758-1.229,0.957-1.776c0.455-0.104,0.786-0.741,0.893-1.408
	c0.112-0.693-0.017-1.433-0.452-1.643c-0.034-0.402-0.107-0.791-0.216-1.16c0.065-0.214,0.1-0.471,0.108-0.781
	c0.028-1.065-1.016-3.164-3.66-3.42c-1.071-0.105-2.23,0.236-2.944,0.866c-0.37,0.327-0.585,0.698-0.624,1.081
	C5.543,2.057,5.143,2.722,5.013,3.682C4.932,4.289,4.97,4.936,5.106,5.367C4.646,5.56,4.512,6.316,4.625,7.023
	C4.738,7.727,5.1,8.399,5.593,8.445c0.198,0.549,0.496,1.231,0.89,1.763c0,0,0,0.001,0.001,0.001
	c0.001,0.001,0.001,0.002,0.001,0.002c0.098,0.129,0.208,0.247,0.323,0.358c-1.426,0.512-4.327,1.573-4.707,1.756
	C1.716,12.507-0.115,14.737,0.006,17.378z M9.449,13.405c-0.028-0.013-0.055-0.027-0.086-0.036
	c-0.131-0.033-0.261-0.009-0.377,0.049l-0.489-0.976l1.444-0.021L9.449,13.405z M9.217,14.057l1.039,3.562l-0.104,0.001h-1.94
	L9.217,14.057z M17.797,17.415l-0.04,0.069c-0.009,0.01-0.047,0.05-0.055,0.061l0.213,0.223l-0.313-0.172
	c-0.049,0.018-0.096,0.024-0.154,0.024h-5.495l0.968-2.086c0.063-0.126,0.081-0.26,0.055-0.379l-0.103-0.549l0.434-0.41
	c0.209-0.171,0.275-0.46,0.159-0.704l-0.929-1.94c1.479,0.539,3.273,1.203,3.521,1.322C16.245,13,17.933,14.904,17.797,17.415z
	 M5.914,7.801C5.826,7.771,5.738,7.778,5.658,7.83C5.576,7.811,5.328,7.513,5.233,6.926c-0.094-0.588,0.048-0.949,0.1-0.987
	C5.425,5.972,5.527,5.961,5.61,5.907c0.082-0.054,0.133-0.145,0.138-0.242l0.014-0.223C5.766,5.39,5.757,5.337,5.735,5.29
	C5.593,4.979,5.547,4.338,5.625,3.765c0.11-0.813,0.408-1.183,0.52-1.183c0.099,0.087,0.243,0.101,0.359,0.035
	c0.114-0.067,0.173-0.199,0.146-0.33c-0.014-0.068-0.021-0.14-0.02-0.211C6.636,1.84,6.786,1.582,7.051,1.347
	c0.584-0.515,1.578-0.801,2.478-0.715c2.239,0.217,3.127,1.925,3.104,2.791c-0.009,0.289-0.045,0.52-0.106,0.687
	c-0.024,0.064-0.026,0.135-0.005,0.2c0.133,0.417,0.211,0.866,0.235,1.335c0.004,0.086,0.031,0.164,0.097,0.22
	c0.066,0.056,0.137,0.076,0.226,0.066c0.073,0.044,0.213,0.404,0.119,0.993c-0.095,0.588-0.342,0.884-0.412,0.904
	c-0.16-0.051-0.33,0.037-0.382,0.195c-0.254,0.752-0.576,1.375-0.93,1.801c-0.001,0.001-0.001,0.005-0.003,0.006
	c-0.001,0.002-0.004,0.003-0.004,0.005c-0.52,0.683-1.335,1.075-2.25,1.075c-0.904,0-1.721-0.392-2.24-1.073
	C6.659,9.408,6.343,8.754,6.091,7.998C6.06,7.907,6.003,7.833,5.914,7.801z M9.226,11.529c0.669,0,1.3-0.181,1.835-0.509
	c0.183,0.065,0.403,0.145,0.652,0.233c0,0.001,0,0.003,0,0.003l1.189,2.477l-0.571,0.54c-0.077,0.071-0.111,0.177-0.092,0.279
	l0.128,0.714l-1.092,2.354h-0.438c-0.002-0.04,0.003-0.08-0.007-0.121l-0.994-3.521c0.017-0.02,0.036-0.037,0.049-0.062l0.592-1.185
	c0.061-0.093,0.094-0.202,0.094-0.317c0-0.324-0.264-0.588-0.588-0.588l-1.505,0.001c-0.1-0.013-0.201,0.014-0.286,0.056
	c-0.143,0.068-0.249,0.188-0.301,0.337c-0.051,0.149-0.04,0.311,0.031,0.453c0.007,0.014,0.015,0.026,0.022,0.038l0.641,1.28
	C8.587,13.996,8.591,13.997,8.594,14L7.62,17.456c-0.019,0.052-0.027,0.107-0.029,0.164H7.16l-1.097-2.352l0.132-0.715
	c0.019-0.103-0.016-0.209-0.092-0.279l-0.583-0.515l1.199-2.502c0.252-0.091,0.475-0.171,0.662-0.237
	C7.917,11.348,8.55,11.529,9.226,11.529z M2.366,12.882c0.26-0.126,2.048-0.789,3.527-1.327l-0.929,1.938
	c-0.113,0.243-0.048,0.53,0.145,0.686l0.45,0.426l-0.1,0.541c-0.027,0.128-0.01,0.262,0.048,0.38l0.973,2.094H0.992
	c-0.058,0-0.104-0.007-0.168-0.031c-0.015-0.009-0.099-0.068-0.114-0.075c-0.008-0.01-0.045-0.054-0.054-0.063l-0.034-0.108
	C0.509,14.903,2.196,13,2.366,12.882z"/>
</svg>
