<?xml version="1.0" encoding="utf-8"?>
<!-- Generator: Adobe Illustrator 15.1.0, SVG Export Plug-In . SVG Version: 6.00 Build 0)  -->
<!DOCTYPE svg PUBLIC "-//W3C//DTD SVG 1.1//EN" "http://www.w3.org/Graphics/SVG/1.1/DTD/svg11.dtd">
<svg version="1.1" id="Layer_1" xmlns="http://www.w3.org/2000/svg" xmlns:xlink="http://www.w3.org/1999/xlink" x="0px" y="0px"
	 width="10.802px" height="10.802px" viewBox="0 -4.163 10.802 10.802" enable-background="new 0 -4.163 10.802 10.802"
	 xml:space="preserve">
<path fill="#010101" d="M6.243,1.24l4.389-4.387c0.227-0.228,0.227-0.6,0-0.84c-0.228-0.239-0.599-0.229-0.842,0l-4.387,4.39
	l-4.388-4.39c-0.228-0.229-0.599-0.229-0.84,0c-0.239,0.23-0.228,0.601,0,0.84l4.39,4.387L0.174,5.631
	c-0.228,0.228-0.228,0.598,0,0.839c0.122,0.117,0.266,0.169,0.422,0.169c0.155,0,0.299-0.061,0.419-0.171l4.388-4.386L9.79,6.468
	c0.121,0.119,0.265,0.171,0.42,0.171c0.158,0,0.301-0.061,0.42-0.171c0.228-0.228,0.228-0.598,0-0.837L6.243,1.24z"/>
</svg>
