<?xml version="1.0" encoding="utf-8"?>
<!-- Generator: Adobe Illustrator 15.1.0, SVG Export Plug-In . SVG Version: 6.00 Build 0)  -->
<!DOCTYPE svg PUBLIC "-//W3C//DTD SVG 1.1//EN" "http://www.w3.org/Graphics/SVG/1.1/DTD/svg11.dtd">
<svg version="1.1" id="Layer_1" xmlns="http://www.w3.org/2000/svg" xmlns:xlink="http://www.w3.org/1999/xlink" x="0px" y="0px"
	 width="10.606px" height="10.544px" viewBox="0 11 10.606 10.544" enable-background="new 0 11 10.606 10.544"
	 xml:space="preserve">
<path fill="#010101" d="M8.536,11H2.07C0.926,11,0,11.927,0,13.069v4.14c0,1.143,0.926,2.069,2.07,2.069h2.116l2.089,2.059
	c0.13,0.132,0.308,0.206,0.493,0.207c0.103,0.001,0.203-0.024,0.293-0.072c0.216-0.114,0.339-0.349,0.312-0.591L7.33,19.278h1.208
	c1.142,0,2.069-0.927,2.069-2.069v-4.14C10.605,11.927,9.679,11,8.536,11z M9.829,17.282c0,0.606-0.491,1.098-1.098,1.098H6.885
	c-0.303,0-0.548,0.245-0.549,0.548c0,0.005,0,0.011,0,0.016l0.328,1.852l-1.942-2.257c-0.101-0.1-0.237-0.156-0.379-0.158H1.875
	c-0.606,0-1.097-0.491-1.097-1.098v-4.388c0-0.606,0.491-1.098,1.097-1.098h6.856c0.606,0,1.098,0.491,1.098,1.098V17.282z"/>
</svg>
