<?xml version="1.0" encoding="utf-8"?>
<!-- Generator: Adobe Illustrator 15.0.0, SVG Export Plug-In . SVG Version: 6.00 Build 0)  -->
<!DOCTYPE svg PUBLIC "-//W3C//DTD SVG 1.1//EN" "http://www.w3.org/Graphics/SVG/1.1/DTD/svg11.dtd">
<svg version="1.1" id="Layer_1" xmlns="http://www.w3.org/2000/svg" xmlns:xlink="http://www.w3.org/1999/xlink" x="0px" y="0px"
	 width="13.538px" height="13.538px" viewBox="0 13.538 13.538 13.538" enable-background="new 0 13.538 13.538 13.538"
	 xml:space="preserve">
<path fill="#010101" d="M6.769,13.538C3.037,13.538,0,16.575,0,20.307c0,3.732,3.037,6.77,6.769,6.77s6.769-3.037,6.769-6.77
	C13.538,16.575,10.501,13.538,6.769,13.538z M6.769,26.58c-3.454,0-6.272-2.819-6.272-6.273c0-3.453,2.818-6.272,6.272-6.272
	c3.454,0,6.273,2.819,6.273,6.272C13.042,23.761,10.223,26.58,6.769,26.58z"/>
<path fill="#010101" d="M7.027,20.208v-3.891c0-0.139-0.119-0.259-0.258-0.259s-0.258,0.119-0.258,0.259v3.989
	c0,0.061,0.021,0.14,0.08,0.179l1.806,1.806c0.04,0.041,0.119,0.08,0.178,0.08c0.06,0,0.119-0.02,0.179-0.08
	c0.1-0.099,0.1-0.258,0-0.356L7.027,20.208z"/>
</svg>
