<?xml version="1.0" encoding="utf-8"?>
<!-- Generator: Adobe Illustrator 15.1.0, SVG Export Plug-In . SVG Version: 6.00 Build 0)  -->
<!DOCTYPE svg PUBLIC "-//W3C//DTD SVG 1.1//EN" "http://www.w3.org/Graphics/SVG/1.1/DTD/svg11.dtd">
<svg version="1.1" id="Layer_1" xmlns="http://www.w3.org/2000/svg" xmlns:xlink="http://www.w3.org/1999/xlink" x="0px" y="0px"
	 width="21.681px" height="17.21px" viewBox="25.225 545.562 21.681 17.21" enable-background="new 25.225 545.562 21.681 17.21"
	 xml:space="preserve">
<g>
	<path d="M33.909,550.926c-0.499,0.166-0.77,0.706-0.604,1.205c0.133,0.399,0.506,0.653,0.906,0.653c0.099,0,0.2-0.017,0.299-0.049
		c0.499-0.165,0.77-0.706,0.604-1.205l0,0C34.948,551.031,34.408,550.761,33.909,550.926z M34.364,552.297
		c-0.257,0.085-0.535-0.055-0.62-0.312s0.054-0.535,0.311-0.62c0.051-0.018,0.103-0.025,0.154-0.025
		c0.206,0,0.397,0.131,0.466,0.337C34.76,551.934,34.621,552.211,34.364,552.297z"/>
	<path d="M38.182,552.904c-0.166-0.5-0.707-0.771-1.205-0.604c-0.499,0.165-0.77,0.706-0.604,1.204
		c0.01,0.029,0.021,0.058,0.034,0.086h-0.961l1.661-3.311l-0.414-0.207l-1.765,3.518h-2.45v0.463h7.418v-0.463H38.15
		C38.243,553.38,38.26,553.137,38.182,552.904z M36.812,553.359c-0.085-0.257,0.054-0.535,0.311-0.621
		c0.256-0.085,0.535,0.055,0.62,0.312c0.066,0.2-0.001,0.414-0.163,0.54h-0.605C36.9,553.531,36.843,553.45,36.812,553.359z"/>
	<rect x="36.581" y="554.953" transform="matrix(0.7076 0.7066 -0.7066 0.7076 404.6692 136.9788)" width="0.463" height="5.062"/>
	<path d="M35.528,555.466c-0.526,0-0.953,0.427-0.953,0.953c0,0.525,0.427,0.953,0.953,0.953c0.525,0,0.953-0.428,0.953-0.953
		C36.481,555.893,36.053,555.466,35.528,555.466z M35.528,556.909c-0.271,0-0.491-0.22-0.491-0.49s0.22-0.491,0.491-0.491
		c0.271,0,0.49,0.221,0.49,0.491S35.798,556.909,35.528,556.909z"/>
	<path d="M37.053,558.688c0,0.526,0.428,0.953,0.954,0.953c0.525,0,0.953-0.427,0.953-0.953c0-0.525-0.428-0.953-0.953-0.953
		C37.481,557.735,37.053,558.163,37.053,558.688z M38.497,558.688c0,0.271-0.22,0.491-0.49,0.491c-0.271,0-0.491-0.221-0.491-0.491
		s0.22-0.49,0.491-0.49C38.277,558.198,38.497,558.418,38.497,558.688z"/>
	<path d="M27.463,554.053h2.051l0,0c0.531,0,0.963,0.563,0.963,1.255h0.463c0-0.691,0.432-1.255,0.963-1.255v-0.463
		c-0.531,0-0.963-0.563-0.963-1.255h-0.463c0,0.692-0.432,1.255-0.963,1.255l0,0H27v2.121l-1.19-3.586l1.946-0.646l-0.146-0.439
		l-2.386,0.792L27,557.18v4.337h12.896v-0.463H27.463V554.053z M30.708,553.271c0.122,0.225,0.287,0.414,0.481,0.55
		c-0.194,0.136-0.359,0.324-0.481,0.551c-0.122-0.227-0.288-0.415-0.481-0.551C30.421,553.686,30.586,553.496,30.708,553.271z"/>
	<rect x="41.34" y="561.054" width="1.247" height="0.463"/>
	<path d="M46.674,556.064h0.231v-2.475H41.34v0.463h5.103v1.563c-0.952,0.114-1.692,0.927-1.692,1.909s0.74,1.795,1.692,1.909v1.619
		h-0.881l0,0c-0.531,0-0.963-0.563-0.963-1.255h-0.463c0,0.691-0.432,1.255-0.963,1.255v0.463c0.531,0,0.963,0.563,0.963,1.255
		h0.463c0-0.691,0.431-1.254,0.962-1.255h1.345v-2.53h-0.231c-0.805,0-1.46-0.656-1.46-1.461
		C45.214,556.72,45.869,556.064,46.674,556.064z M44.367,561.835c-0.122-0.226-0.288-0.415-0.481-0.55
		c0.194-0.136,0.359-0.324,0.481-0.551c0.122,0.227,0.288,0.415,0.481,0.551C44.655,561.42,44.489,561.609,44.367,561.835z"/>
	<rect x="40.374" y="559.836" width="0.462" height="0.509"/>
	<rect x="40.374" y="556.782" width="0.462" height="0.509"/>
	<rect x="40.374" y="557.8" width="0.462" height="0.509"/>
	<rect x="40.374" y="560.854" width="0.462" height="0.509"/>
	<rect x="40.374" y="558.817" width="0.462" height="0.509"/>
	<rect x="40.374" y="553.729" width="0.462" height="0.509"/>
	<rect x="40.374" y="554.746" width="0.462" height="0.509"/>
	<rect x="40.374" y="555.764" width="0.462" height="0.509"/>
	<rect x="42.112" y="558.25" width="0.462" height="0.92"/>
	<rect x="42.112" y="555.77" width="0.462" height="2.017"/>
	<rect x="42.941" y="555.77" width="0.463" height="3.4"/>
	<rect x="29.378" y="556.103" width="4.113" height="0.463"/>
	<rect x="28.375" y="556.103" width="0.541" height="0.463"/>
	<rect x="28.375" y="558.654" width="3.582" height="0.463"/>
	<rect x="32.781" y="557.379" width="0.709" height="0.463"/>
	<rect x="28.375" y="557.379" width="4.042" height="0.463"/>
	<rect x="33.787" y="545.449" transform="matrix(-0.315 -0.9491 0.9491 -0.315 -476.4767 754.4063)" width="0.462" height="7.418"/>
	<path d="M43.824,546.146l0.492,1.483c-0.388,0.183-0.702,0.488-0.898,0.877c-0.23,0.46-0.268,0.98-0.106,1.468
		c0.162,0.488,0.504,0.884,0.963,1.114c0.389,0.195,0.824,0.252,1.244,0.166l0.583,1.756l0.439-0.146l-0.724-2.182l-0.22,0.072
		c-0.37,0.123-0.766,0.094-1.115-0.081s-0.608-0.475-0.731-0.845c-0.123-0.371-0.094-0.767,0.081-1.115s0.475-0.608,0.846-0.731
		l0.219-0.073l-0.779-2.349l-5.282,1.753l0.146,0.439L43.824,546.146z"/>
	<rect x="38.351" y="548.631" transform="matrix(0.9492 -0.3146 0.3146 0.9492 -170.7438 40.0175)" width="0.462" height="0.509"/>
	<rect x="39.61" y="552.518" transform="matrix(0.3159 0.9488 -0.9488 0.3159 551.7067 340.2919)" width="0.508" height="0.462"/>
	
		<rect x="38.007" y="547.689" transform="matrix(-0.3145 -0.9493 0.9493 -0.3145 -469.8224 756.5612)" width="0.509" height="0.462"/>
	
		<rect x="39.289" y="551.553" transform="matrix(-0.3151 -0.9491 0.9491 -0.3151 -471.6775 763.1669)" width="0.508" height="0.463"/>
	<rect x="38.649" y="549.621" transform="matrix(0.3151 0.9491 -0.9491 0.3151 548.4922 339.6857)" width="0.508" height="0.462"/>
	
		<rect x="38.969" y="550.587" transform="matrix(-0.3151 -0.9491 0.9491 -0.3151 -471.1814 761.5932)" width="0.508" height="0.463"/>
	
		<rect x="41.128" y="551.411" transform="matrix(-0.9487 0.3162 -0.3162 -0.9487 255.1139 1062.3439)" width="0.463" height="0.921"/>
	
		<rect x="40.52" y="549.029" transform="matrix(-0.9492 0.3146 -0.3146 -0.9492 252.4991 1059.3175)" width="0.462" height="2.018"/>
	<rect x="41.565" y="548.721" transform="matrix(0.9492 -0.3146 0.3146 0.9492 -171.0634 41.1068)" width="0.462" height="3.4"/>
</g>
</svg>
