<?xml version="1.0" encoding="utf-8"?>
<!-- Generator: Adobe Illustrator 15.1.0, SVG Export Plug-In . SVG Version: 6.00 Build 0)  -->
<!DOCTYPE svg PUBLIC "-//W3C//DTD SVG 1.1//EN" "http://www.w3.org/Graphics/SVG/1.1/DTD/svg11.dtd">
<svg version="1.1" id="Layer_1" xmlns="http://www.w3.org/2000/svg" xmlns:xlink="http://www.w3.org/1999/xlink" x="0px" y="0px"
	 width="23.684px" height="23.685px" viewBox="29.764 590.727 23.684 23.685" enable-background="new 29.764 590.727 23.684 23.685"
	 xml:space="preserve">
<path d="M52.771,601.142l-1.442-1.179l0.66-1.739c0.198-0.52,0.151-1.095-0.127-1.576c-0.279-0.481-0.753-0.81-1.303-0.897
	l-1.836-0.297l-0.296-1.836c-0.145-0.899-0.91-1.551-1.82-1.551c-0.223,0-0.443,0.04-0.654,0.12l-1.739,0.659l-1.178-1.441
	c-0.352-0.431-0.873-0.678-1.429-0.678c-0.556,0-1.076,0.247-1.428,0.678L39,592.847l-1.739-0.66
	c-0.211-0.079-0.431-0.12-0.655-0.12c-0.91,0-1.675,0.651-1.82,1.551l-0.296,1.836l-1.836,0.297
	c-0.549,0.088-1.024,0.416-1.303,0.897c-0.278,0.481-0.325,1.057-0.127,1.576l0.66,1.739l-1.442,1.179
	c-0.43,0.352-0.677,0.871-0.677,1.427c0,0.557,0.247,1.077,0.677,1.429l1.442,1.178l-0.66,1.739
	c-0.198,0.521-0.151,1.095,0.127,1.577c0.279,0.481,0.753,0.809,1.303,0.897l1.836,0.297l0.296,1.836
	c0.145,0.898,0.91,1.551,1.82,1.551c0.223,0,0.443-0.041,0.654-0.121L39,612.292l1.178,1.442c0.352,0.43,0.873,0.677,1.428,0.677
	c0.556,0,1.077-0.247,1.429-0.677l1.178-1.442l1.739,0.659c0.211,0.08,0.431,0.121,0.655,0.121c0.91,0,1.675-0.652,1.82-1.551
	l0.296-1.836l1.836-0.297c0.549-0.089,1.024-0.416,1.303-0.897c0.278-0.482,0.325-1.057,0.127-1.577l-0.66-1.739l1.442-1.178
	c0.43-0.352,0.677-0.872,0.677-1.429C53.448,602.013,53.201,601.493,52.771,601.142z M52.105,603.183l-1.736,1.417
	c-0.175,0.144-0.239,0.383-0.159,0.594l0.794,2.095c0.084,0.223,0.065,0.469-0.055,0.676s-0.323,0.348-0.559,0.386l-2.211,0.356
	c-0.224,0.037-0.4,0.213-0.436,0.437l-0.357,2.211c-0.062,0.386-0.391,0.666-0.781,0.666c-0.095,0-0.189-0.018-0.281-0.053
	l-2.093-0.794c-0.211-0.08-0.451-0.017-0.594,0.159l-1.418,1.735c-0.151,0.186-0.375,0.291-0.613,0.291
	c-0.238,0-0.461-0.105-0.613-0.291l-1.418-1.735c-0.102-0.125-0.252-0.193-0.407-0.193c-0.063,0-0.126,0.012-0.187,0.034
	l-2.093,0.795c-0.091,0.034-0.186,0.052-0.281,0.052c-0.391,0-0.719-0.279-0.781-0.666l-0.357-2.211
	c-0.036-0.224-0.212-0.399-0.436-0.437l-2.211-0.356c-0.236-0.039-0.439-0.179-0.559-0.386s-0.139-0.453-0.055-0.677l0.794-2.094
	c0.08-0.211,0.016-0.45-0.159-0.594l-1.736-1.417c-0.185-0.151-0.291-0.375-0.291-0.614c0-0.238,0.106-0.461,0.291-0.612
	l1.736-1.418c0.175-0.143,0.239-0.382,0.159-0.594l-0.794-2.094c-0.084-0.224-0.065-0.47,0.055-0.677
	c0.12-0.206,0.323-0.347,0.559-0.385l2.211-0.357c0.224-0.036,0.399-0.212,0.436-0.436l0.357-2.211
	c0.063-0.386,0.391-0.666,0.781-0.666c0.095,0,0.19,0.018,0.281,0.053l2.093,0.794c0.212,0.079,0.451,0.016,0.594-0.16l1.418-1.735
	c0.151-0.186,0.375-0.291,0.613-0.291c0.239,0,0.462,0.105,0.613,0.291l1.418,1.735c0.143,0.176,0.382,0.239,0.594,0.159
	l2.093-0.794c0.091-0.035,0.186-0.052,0.281-0.052c0.391,0,0.719,0.279,0.781,0.666l0.357,2.211
	c0.036,0.224,0.212,0.399,0.436,0.436l2.211,0.357c0.236,0.038,0.439,0.179,0.559,0.385c0.12,0.207,0.139,0.453,0.055,0.678
	l-0.794,2.093c-0.08,0.212-0.016,0.451,0.159,0.594l1.736,1.418c0.185,0.151,0.291,0.374,0.291,0.612
	C52.395,602.808,52.289,603.031,52.105,603.183z"/>
<path d="M38.828,601.988c1.211,0,2.197-0.985,2.197-2.197c0-1.211-0.985-2.196-2.197-2.196c-0.14,0-0.28,0.014-0.417,0.039
	c-0.285,0.056-0.472,0.331-0.417,0.616c0.055,0.285,0.332,0.472,0.616,0.417c0.071-0.014,0.144-0.021,0.217-0.021
	c0.631,0,1.144,0.514,1.144,1.145s-0.513,1.145-1.144,1.145s-1.145-0.514-1.145-1.145c0-0.138,0.024-0.273,0.072-0.401
	c0.102-0.271-0.037-0.575-0.309-0.677s-0.575,0.037-0.677,0.309c-0.092,0.246-0.138,0.505-0.138,0.77
	C36.632,601.003,37.617,601.988,38.828,601.988z"/>
<path d="M45.924,604.511c-0.285,0.055-0.472,0.331-0.417,0.616c0.014,0.072,0.021,0.146,0.021,0.22c0,0.631-0.514,1.145-1.145,1.145
	c-0.63,0-1.144-0.514-1.144-1.145s0.514-1.145,1.144-1.145c0.191,0,0.372,0.045,0.538,0.134c0.257,0.137,0.575,0.04,0.712-0.216
	c0.137-0.257,0.04-0.576-0.216-0.713c-0.316-0.168-0.673-0.258-1.034-0.258c-1.211,0-2.197,0.986-2.197,2.197
	s0.986,2.197,2.197,2.197c1.212,0,2.197-0.986,2.197-2.197c0-0.141-0.013-0.281-0.04-0.419
	C46.486,604.643,46.209,604.456,45.924,604.511z"/>
<path d="M46.104,598.07c-0.205-0.205-0.539-0.205-0.744,0l-8.252,8.253c-0.206,0.206-0.206,0.539,0,0.744
	c0.103,0.104,0.237,0.154,0.372,0.154s0.27-0.051,0.372-0.154l8.252-8.252C46.31,598.61,46.31,598.276,46.104,598.07z"/>
</svg>
