<?xml version="1.0" encoding="utf-8"?>
<!-- Generator: Adobe Illustrator 15.1.0, SVG Export Plug-In . SVG Version: 6.00 Build 0)  -->
<!DOCTYPE svg PUBLIC "-//W3C//DTD SVG 1.1//EN" "http://www.w3.org/Graphics/SVG/1.1/DTD/svg11.dtd">
<svg version="1.1" id="Layer_1" xmlns="http://www.w3.org/2000/svg" xmlns:xlink="http://www.w3.org/1999/xlink" x="0px" y="0px"
	 width="15.637px" height="10.918px" viewBox="0 16.5 15.637 10.918" enable-background="new 0 16.5 15.637 10.918"
	 xml:space="preserve">
<path fill="#010101" d="M14.479,16.5H1.159C0.519,16.5,0,17.019,0,17.659l0,0v8.6c0,0.641,0.519,1.159,1.159,1.159h13.32
	c0.639,0,1.157-0.517,1.159-1.155v-8.601c0.001-0.64-0.516-1.16-1.156-1.162C14.48,16.5,14.479,16.5,14.479,16.5z M7.818,21.379
	l-5.613-3.924h11.298L7.818,21.379z M14.479,26.465H1.159c-0.112,0-0.203-0.091-0.203-0.202l0,0v-8.512l6.59,4.603l0,0
	c0.019,0.013,0.039,0.025,0.059,0.036h0.016l0.045,0.017h0.023l0.041,0.01h0.023h0.061l0,0h0.061h0.022
	c0.014-0.001,0.027-0.005,0.041-0.01h0.023l0.045-0.017h0.017c0.021-0.01,0.04-0.021,0.059-0.034l0,0l6.589-4.552v8.459
	C14.672,26.371,14.587,26.461,14.479,26.465z"/>
</svg>
