<?xml version="1.0" encoding="utf-8"?>
<!-- Generator: Adobe Illustrator 15.1.0, SVG Export Plug-In . SVG Version: 6.00 Build 0)  -->
<!DOCTYPE svg PUBLIC "-//W3C//DTD SVG 1.1//EN" "http://www.w3.org/Graphics/SVG/1.1/DTD/svg11.dtd">
<svg version="1.1" id="Layer_1" xmlns="http://www.w3.org/2000/svg" xmlns:xlink="http://www.w3.org/1999/xlink" x="0px" y="0px"
	 width="8.547px" height="16.921px" viewBox="147.289 701.664 8.547 16.921" enable-background="new 147.289 701.664 8.547 16.921"
	 xml:space="preserve">
<g id="XMLID_834_">
	<path id="XMLID_835_" d="M147.562,710.677h1.854v7.636c0,0.15,0.123,0.272,0.273,0.272h3.145c0.151,0,0.273-0.122,0.273-0.272
		v-7.601h2.132c0.139,0,0.255-0.104,0.271-0.241l0.324-2.812c0.009-0.077-0.015-0.154-0.067-0.213
		c-0.052-0.058-0.126-0.091-0.204-0.091h-2.457v-1.763c0-0.531,0.286-0.801,0.851-0.801c0.08,0,1.606,0,1.606,0
		c0.15,0,0.272-0.122,0.272-0.272v-2.58c0-0.151-0.122-0.273-0.272-0.273h-2.213c-0.016-0.001-0.05-0.002-0.102-0.002
		c-0.384,0-1.719,0.075-2.773,1.045c-1.168,1.075-1.006,2.362-0.967,2.585v2.062h-1.947c-0.151,0-0.273,0.122-0.273,0.272v2.775
		C147.289,710.554,147.411,710.677,147.562,710.677z"/>
</g>
</svg>
