<?xml version="1.0" encoding="utf-8"?>
<!-- Generator: Adobe Illustrator 15.1.0, SVG Export Plug-In . SVG Version: 6.00 Build 0)  -->
<!DOCTYPE svg PUBLIC "-//W3C//DTD SVG 1.1//EN" "http://www.w3.org/Graphics/SVG/1.1/DTD/svg11.dtd">
<svg version="1.1" id="Layer_1" xmlns="http://www.w3.org/2000/svg" xmlns:xlink="http://www.w3.org/1999/xlink" x="0px" y="0px"
	 width="20.266px" height="17.564px" viewBox="0 7.636 20.266 17.564" enable-background="new 0 7.636 20.266 17.564"
	 xml:space="preserve">
<rect y="24.524" fill="#010101" width="0.676" height="0.676"/>
<rect x="19.591" y="24.524" fill="#010101" width="0.675" height="0.676"/>
<path fill="#010101" d="M12.497,19.458c0,0.931,0.758,1.688,1.689,1.688s1.689-0.758,1.689-1.688c0-0.932-0.758-1.689-1.689-1.689
	S12.497,18.526,12.497,19.458z M15.199,19.458c0,0.559-0.455,1.013-1.013,1.013c-0.559,0-1.013-0.454-1.013-1.013
	c0-0.56,0.454-1.014,1.013-1.014C14.744,18.444,15.199,18.899,15.199,19.458z"/>
<path fill="#010101" d="M10.47,21.146H9.911c-0.015-0.024-0.026-0.049-0.047-0.07l-0.64-0.64c0.356-0.458,0.57-1.031,0.57-1.654
	c0-1.49-1.212-2.702-2.703-2.702c-1.49,0-2.702,1.213-2.702,2.703c0,1.489,1.212,2.701,2.702,2.701c0.624,0,1.196-0.214,1.655-0.569
	l0.256,0.256c-0.129,0.047-0.221,0.169-0.221,0.313c0,0.188,0.151,0.338,0.338,0.338h1.351c0.187,0,0.337-0.151,0.337-0.338
	C10.808,21.298,10.657,21.146,10.47,21.146z M7.093,20.81c-1.117,0-2.026-0.909-2.026-2.026s0.909-2.027,2.026-2.027
	c1.118,0,2.027,0.91,2.027,2.027c0,0.437-0.141,0.841-0.377,1.172l-0.491-0.491c0.119-0.201,0.192-0.431,0.192-0.682
	c0-0.745-0.606-1.351-1.352-1.351c-0.745,0-1.351,0.605-1.351,1.351s0.606,1.351,1.351,1.351c0.25,0,0.481-0.072,0.683-0.19
	l0.491,0.49C7.934,20.669,7.53,20.81,7.093,20.81z M7.332,18.544c-0.132-0.132-0.346-0.132-0.478,0
	c-0.131,0.132-0.131,0.345,0,0.478l0.411,0.411c-0.055,0.016-0.113,0.025-0.173,0.025c-0.373,0-0.675-0.303-0.675-0.675
	c0-0.373,0.303-0.676,0.675-0.676c0.373,0,0.676,0.303,0.676,0.676c0,0.06-0.011,0.117-0.026,0.172L7.332,18.544z"/>
<rect x="13.849" y="19.12" fill="#010101" width="0.675" height="0.675"/>
<path fill="#010101" d="M20.103,7.685C19.941,7.588,19.734,7.64,19.638,7.8l-0.914,1.519h-0.547c-0.14-0.39-0.509-0.669-0.944-0.669
	h-2.715c-0.555,0-1.005,0.451-1.005,1.02c0,0.555,0.451,1.006,1.005,1.006h0.178l-2.045,4.965l-4.348-0.913L7.337,13.04h0.104
	c0.739,0,1.341-0.601,1.341-1.361c0-0.739-0.602-1.341-1.341-1.341H4.043c-0.739,0-1.341,0.602-1.341,1.361
	c0,0.739,0.602,1.34,1.341,1.34h0.815l0.708,1.415c-2.005,0.343-3.539,2.131-3.539,4.284v0.09c0,2.396,1.904,4.344,4.245,4.344h1.16
	v1.352H1.351V25.2h6.418h4.053h7.094v-0.676h-6.756v-1.351h1.937c1.912,0,3.468-1.592,3.468-3.548v-0.06
	c0-1.677-1.166-3.14-2.771-3.476l-0.109-0.022l2.098-5.392h0.45c0.438,0,0.809-0.283,0.946-0.682h0.736
	c0.118,0,0.228-0.063,0.289-0.164l1.013-1.682C20.313,7.988,20.262,7.781,20.103,7.685z M3.378,11.679
	c0-0.367,0.298-0.666,0.665-0.666h3.398c0.367,0,0.666,0.299,0.666,0.686c0,0.366-0.298,0.665-0.666,0.665H4.043
	C3.676,12.365,3.378,12.066,3.378,11.679z M6.56,13.04l0.858,1.503l-0.295-0.062c-0.275-0.058-0.556-0.087-0.834-0.089l-0.676-1.352
	L6.56,13.04L6.56,13.04z M11.484,24.524H8.106v-1.351h3.378V24.524L11.484,24.524z M16.889,19.566v0.06
	c0,1.584-1.253,2.872-2.792,2.872h-2.275H7.768H6.271c-1.968,0-3.569-1.646-3.569-3.669v-0.09c0-2.024,1.598-3.673,3.56-3.673
	c0.241,0,0.483,0.025,0.722,0.075l0.922,0.194c0.059,0.043,0.128,0.068,0.2,0.068c0.027,0,0.054-0.004,0.08-0.011l6.468,1.357
	C15.948,17.022,16.889,18.207,16.889,19.566z M14.015,15.928l-0.692-0.146l2.103-5.106h0.631L14.015,15.928z M17.232,10.001h-2.715
	c-0.183,0-0.332-0.148-0.332-0.345c0-0.183,0.148-0.331,0.332-0.331h2.715c0.183,0,0.332,0.148,0.332,0.344
	C17.563,9.853,17.415,10.001,17.232,10.001z"/>
</svg>
