<?xml version="1.0" encoding="utf-8"?>
<!-- Generator: Adobe Illustrator 15.1.0, SVG Export Plug-In . SVG Version: 6.00 Build 0)  -->
<!DOCTYPE svg PUBLIC "-//W3C//DTD SVG 1.1//EN" "http://www.w3.org/Graphics/SVG/1.1/DTD/svg11.dtd">
<svg version="1.1" id="Capa_1" xmlns="http://www.w3.org/2000/svg" xmlns:xlink="http://www.w3.org/1999/xlink" x="0px" y="0px"
	 width="17.208px" height="13.206px" viewBox="0 636.16 17.208 13.206" enable-background="new 0 636.16 17.208 13.206"
	 xml:space="preserve">
<g>
	<g>
		<g>
			<path d="M13.206,642.029H7.043v2.055h3.76c-0.561,1.786-2.229,3.081-4.2,3.081c-2.431,0-4.402-1.971-4.402-4.402
				c0-2.431,1.971-4.401,4.402-4.401c1.224,0,2.332,0.5,3.129,1.307l1.491-1.621c-1.191-1.167-2.822-1.887-4.621-1.887
				c-3.647,0-6.603,2.956-6.603,6.603c0,3.647,2.956,6.604,6.603,6.604c3.194,0,5.991-2.269,6.603-5.282V642.029L13.206,642.029
				L13.206,642.029z"/>
			<polygon points="17.208,642.026 15.947,642.026 15.947,640.766 14.866,640.766 14.866,642.026 13.606,642.026 13.606,643.106 
				14.866,643.106 14.866,644.367 15.947,644.367 15.947,643.106 17.208,643.106 			"/>
		</g>
	</g>
</g>
</svg>
