<?xml version="1.0" encoding="utf-8"?>
<!-- Generator: Adobe Illustrator 15.0.0, SVG Export Plug-In  -->
<!DOCTYPE svg PUBLIC "-//W3C//DTD SVG 1.1//EN" "http://www.w3.org/Graphics/SVG/1.1/DTD/svg11.dtd" [
	<!ENTITY ns_flows "http://ns.adobe.com/Flows/1.0/">
]>
<svg version="1.1"
	 xmlns="http://www.w3.org/2000/svg" xmlns:xlink="http://www.w3.org/1999/xlink" xmlns:a="http://ns.adobe.com/AdobeSVGViewerExtensions/3.0/"
	 x="0px" y="0px" width="18px" height="15px" viewBox="0 0 18 15" enable-background="new 0 0 18 15" xml:space="preserve">
<defs>
</defs>
<path fill="#010101" d="M17.656,0H5.479C5.144,0,4.871,0.272,4.871,0.608v2.436c0,0.336,0.273,0.609,0.609,0.609h12.177
	c0.338,0,0.609-0.273,0.609-0.609V0.608C18.266,0.272,17.994,0,17.656,0z M17.048,2.436H6.088V1.218h10.959V2.436z"/>
<path fill="#010101" d="M17.656,5.489H5.479c-0.336,0-0.609,0.272-0.609,0.609v2.436c0,0.336,0.273,0.608,0.609,0.608h12.177
	c0.338,0,0.609-0.272,0.609-0.608V6.099C18.266,5.762,17.994,5.489,17.656,5.489z M17.048,7.925H6.088V6.707h10.959V7.925z"/>
<path fill="#010101" d="M17.656,10.979H5.479c-0.336,0-0.609,0.272-0.609,0.608v2.436c0,0.337,0.273,0.609,0.609,0.609h12.177
	c0.338,0,0.609-0.272,0.609-0.609v-2.436C18.266,11.251,17.994,10.979,17.656,10.979z M17.048,13.414H6.088v-1.218h10.959V13.414z"
	/>
<path fill="#010101" d="M3.044,0H0.609C0.273,0,0,0.272,0,0.608v2.436C0,3.38,0.273,3.653,0.609,3.653h2.436
	c0.336,0,0.609-0.273,0.609-0.609V0.608C3.653,0.272,3.38,0,3.044,0z M2.436,2.436H1.218V1.218h1.218V2.436z"/>
<path fill="#010101" d="M3.044,5.489H0.609C0.273,5.489,0,5.762,0,6.099v2.436C0,8.87,0.273,9.143,0.609,9.143h2.436
	c0.336,0,0.609-0.272,0.609-0.608V6.099C3.653,5.762,3.38,5.489,3.044,5.489z M2.436,7.925H1.218V6.707h1.218V7.925z"/>
<path fill="#010101" d="M3.044,10.979H0.609C0.273,10.979,0,11.251,0,11.587v2.436c0,0.337,0.273,0.609,0.609,0.609h2.436
	c0.336,0,0.609-0.272,0.609-0.609v-2.436C3.653,11.251,3.38,10.979,3.044,10.979z M2.436,13.414H1.218v-1.218h1.218V13.414z"/>
</svg>
