<?xml version="1.0" encoding="utf-8"?>
<!-- Generator: Adobe Illustrator 15.1.0, SVG Export Plug-In . SVG Version: 6.00 Build 0)  -->
<!DOCTYPE svg PUBLIC "-//W3C//DTD SVG 1.1//EN" "http://www.w3.org/Graphics/SVG/1.1/DTD/svg11.dtd">
<svg version="1.1" id="Layer_1" xmlns="http://www.w3.org/2000/svg" xmlns:xlink="http://www.w3.org/1999/xlink" x="0px" y="0px"
	 width="21.905px" height="21.063px" viewBox="55.808 558.004 21.905 21.063" enable-background="new 55.808 558.004 21.905 21.063"
	 xml:space="preserve">
<g>
	<g>
		<path d="M74.048,572.705c0.252,0,0.421-0.168,0.421-0.421v-1.896c0-0.253-0.168-0.421-0.421-0.421h-1.053v-1.433
			c0-0.253-0.168-0.421-0.421-0.421h-1.811c-0.253,0-0.421,0.168-0.421,0.421v1.39h-0.463c-0.168-1.264-1.18-2.274-2.485-2.485
			v-0.716H66.55v0.716c-1.264,0.169-2.274,1.18-2.485,2.485h-0.379v-0.842c0-0.253-0.168-0.422-0.421-0.422h-2.822
			c-0.253,0-0.421,0.169-0.421,0.422v0.842h-0.59c-0.252,0-0.421,0.169-0.421,0.422v1.896c0,0.253,0.168,0.421,0.421,0.421h2.106
			v6.403h0.842v-6.361h8.72v6.361h0.842v-6.361H74.048z M71.183,568.956h0.969v0.969h-0.969V568.956z M66.971,568.282
			c1.011,0,1.854,0.716,2.022,1.686h-4.086C65.117,568.998,65.96,568.282,66.971,568.282z M60.863,569.546h1.979v0.422h-1.979
			V569.546z M59.894,570.768h0.548h2.822h1.18h5.013h1.306h1.811h1.053v1.054H59.894V570.768z"/>
		<path d="M59.81,573.675h-3.16v-6.614h-0.842v12.006h0.842v-1.306h2.738v1.306h0.843v-4.971
			C60.231,573.843,60.062,573.675,59.81,573.675z M56.65,576.918v-2.401h2.738v2.401H56.65z"/>
		<path d="M76.87,567.061v6.571h-3.159c-0.253,0-0.421,0.169-0.421,0.422v5.013h0.842v-1.306h2.738v1.306h0.842v-12.006H76.87z
			 M74.132,576.918v-2.401h2.738v2.401H74.132z"/>
		<path d="M63.896,563.648h5.687c0.253,0,0.421-0.168,0.421-0.421c0-1.349-1.095-2.443-2.443-2.443h-0.421v-2.78h-0.842v2.78h-0.421
			c-1.348,0-2.443,1.095-2.443,2.443C63.474,563.438,63.685,563.648,63.896,563.648z M65.918,561.627h1.685
			c0.716,0,1.348,0.505,1.517,1.18h-4.718C64.57,562.132,65.202,561.627,65.918,561.627z"/>
	</g>
</g>
</svg>
