<?xml version="1.0" encoding="utf-8"?>
<!-- Generator: Adobe Illustrator 15.1.0, SVG Export Plug-In . SVG Version: 6.00 Build 0)  -->
<!DOCTYPE svg PUBLIC "-//W3C//DTD SVG 1.1//EN" "http://www.w3.org/Graphics/SVG/1.1/DTD/svg11.dtd">
<svg version="1.1" id="Layer_1" xmlns="http://www.w3.org/2000/svg" xmlns:xlink="http://www.w3.org/1999/xlink" x="0px" y="0px"
	 width="14.736px" height="16.235px" viewBox="-1.758 553.765 14.736 16.235" enable-background="new -1.758 553.765 14.736 16.235"
	 xml:space="preserve">
<path d="M10.309,560.538H9.998v-0.805c0-0.177-0.143-0.321-0.32-0.321H9.099v-0.29c0-0.177-0.144-0.32-0.32-0.32
	c-0.177,0-0.321,0.144-0.321,0.32v0.29H7.864c-0.177,0-0.32,0.145-0.32,0.321v0.805H7.257v-1.059c0-0.177-0.143-0.32-0.32-0.32
	H6.265v-0.82c0-0.178-0.144-0.32-0.32-0.32H4.389v-0.466c0-0.178-0.143-0.321-0.32-0.321c-0.177,0-0.32,0.144-0.32,0.321v0.465H2.26
	c-0.177,0-0.32,0.144-0.32,0.321v0.82H1.268c-0.177,0-0.32,0.144-0.32,0.32v10.2c0,0.177,0.144,0.32,0.32,0.32h9.041
	c0.177,0,0.32-0.144,0.32-0.32v-8.821C10.629,560.683,10.486,560.538,10.309,560.538z M2.581,558.659h3.043v0.5H2.581V558.659z
	 M4.916,569.359H4.389v-1.617h0.526V569.359z M3.749,569.359H3.289v-1.617h0.459V569.359z M6.616,569.359h-1.06v-1.937
	c0-0.178-0.144-0.321-0.32-0.321H2.969c-0.177,0-0.321,0.144-0.321,0.321v1.937h-1.06v-9.56h5.027V569.359z M8.184,560.054h1.173
	v0.484H8.184V560.054z M9.989,569.359H7.257v-8.18h2.732V569.359z"/>
<path d="M2.419,562.724h3.368c0.177,0,0.321-0.144,0.321-0.32c0-0.178-0.144-0.32-0.321-0.32H2.419c-0.177,0-0.32,0.143-0.32,0.32
	C2.098,562.58,2.242,562.724,2.419,562.724z"/>
<path d="M2.419,564.272h3.368c0.177,0,0.321-0.143,0.321-0.32c0-0.177-0.144-0.32-0.321-0.32H2.419c-0.177,0-0.32,0.144-0.32,0.32
	C2.098,564.13,2.242,564.272,2.419,564.272z"/>
<path d="M2.419,565.822h3.368c0.177,0,0.321-0.144,0.321-0.321c0-0.176-0.144-0.319-0.321-0.319H2.419
	c-0.177,0-0.32,0.144-0.32,0.319C2.098,565.679,2.242,565.822,2.419,565.822z"/>
<path d="M2.419,561.174h3.368c0.177,0,0.321-0.144,0.321-0.32s-0.144-0.32-0.321-0.32H2.419c-0.177,0-0.32,0.144-0.32,0.32
	S2.242,561.174,2.419,561.174z"/>
<path d="M7.875,565.789h1.449c0.177,0,0.32-0.145,0.32-0.321s-0.144-0.32-0.32-0.32H7.875c-0.177,0-0.32,0.144-0.32,0.32
	S7.698,565.789,7.875,565.789z"/>
<path d="M7.875,567.068h1.449c0.177,0,0.32-0.144,0.32-0.32s-0.144-0.32-0.32-0.32H7.875c-0.177,0-0.32,0.144-0.32,0.32
	S7.698,567.068,7.875,567.068z"/>
<path d="M9.324,567.809H7.875c-0.177,0-0.32,0.144-0.32,0.32s0.144,0.32,0.32,0.32h1.449c0.177,0,0.32-0.144,0.32-0.32
	S9.501,567.809,9.324,567.809z"/>
<path d="M7.875,564.407h1.449c0.177,0,0.32-0.144,0.32-0.32s-0.144-0.32-0.32-0.32H7.875c-0.177,0-0.32,0.144-0.32,0.32
	S7.698,564.407,7.875,564.407z"/>
<path d="M7.228,554.807c-0.029-0.09-0.106-0.156-0.2-0.171l-0.684-0.106l-0.3-0.623c-0.041-0.086-0.127-0.141-0.222-0.142H5.82
	c-0.094,0-0.18,0.053-0.222,0.137l-0.313,0.618l-0.686,0.093c-0.094,0.012-0.172,0.077-0.203,0.167
	c-0.03,0.091-0.007,0.189,0.061,0.256l0.491,0.488l-0.124,0.681c-0.017,0.094,0.02,0.188,0.097,0.245
	c0.076,0.057,0.178,0.065,0.262,0.021l0.616-0.315l0.609,0.327c0.083,0.045,0.186,0.039,0.263-0.016
	c0.077-0.056,0.117-0.149,0.102-0.243l-0.11-0.684l0.5-0.479C7.231,554.996,7.257,554.897,7.228,554.807z M6.223,555.271
	c-0.06,0.057-0.087,0.139-0.074,0.22l0.05,0.314l-0.28-0.15c-0.072-0.039-0.159-0.04-0.232-0.003l-0.283,0.146l0.057-0.313
	c0.015-0.081-0.011-0.163-0.069-0.222l-0.226-0.224l0.315-0.043c0.082-0.011,0.152-0.061,0.189-0.134l0.144-0.285l0.138,0.287
	c0.036,0.074,0.105,0.125,0.186,0.138l0.315,0.05L6.223,555.271z"/>
<path d="M10.448,556.011c-0.028-0.091-0.106-0.157-0.199-0.172l-0.521-0.081l-0.229-0.476c-0.041-0.085-0.127-0.14-0.222-0.141
	H9.274c-0.094,0-0.18,0.053-0.222,0.137l-0.238,0.471l-0.523,0.07c-0.094,0.014-0.173,0.078-0.203,0.168
	c-0.03,0.09-0.007,0.189,0.061,0.256l0.374,0.372l-0.094,0.519c-0.017,0.094,0.021,0.188,0.097,0.245s0.178,0.065,0.262,0.021
	l0.47-0.24l0.464,0.249c0.083,0.046,0.185,0.039,0.262-0.016c0.078-0.056,0.117-0.149,0.102-0.243l-0.084-0.521l0.381-0.365
	C10.451,556.199,10.477,556.101,10.448,556.011z M9.562,556.36c-0.059,0.056-0.087,0.139-0.074,0.22l0.024,0.151l-0.135-0.073
	c-0.072-0.038-0.159-0.039-0.232-0.002l-0.137,0.07l0.027-0.151c0.015-0.08-0.011-0.163-0.069-0.221l-0.109-0.108l0.152-0.021
	c0.081-0.011,0.151-0.062,0.188-0.135l0.069-0.137l0.067,0.138c0.036,0.074,0.105,0.126,0.186,0.139l0.152,0.023L9.562,556.36z"/>
<path d="M3.536,556.011c-0.028-0.091-0.106-0.157-0.199-0.172l-0.521-0.081l-0.229-0.476c-0.041-0.085-0.127-0.14-0.222-0.141H2.362
	c-0.094,0-0.18,0.053-0.222,0.137l-0.238,0.471l-0.523,0.07c-0.094,0.014-0.172,0.078-0.203,0.168s-0.007,0.189,0.061,0.256
	l0.374,0.372l-0.094,0.519c-0.017,0.094,0.021,0.188,0.097,0.245s0.178,0.065,0.262,0.021l0.47-0.24l0.464,0.249
	c0.083,0.045,0.186,0.039,0.263-0.016c0.077-0.056,0.117-0.149,0.102-0.243l-0.084-0.521l0.382-0.365
	C3.539,556.199,3.565,556.101,3.536,556.011z M2.651,556.36c-0.06,0.056-0.087,0.139-0.074,0.22l0.025,0.151l-0.135-0.073
	c-0.073-0.038-0.159-0.039-0.232-0.002l-0.137,0.07l0.027-0.151c0.015-0.08-0.012-0.163-0.07-0.221l-0.109-0.108l0.152-0.021
	c0.081-0.011,0.152-0.062,0.189-0.135l0.069-0.137l0.067,0.138c0.036,0.074,0.105,0.126,0.186,0.139l0.152,0.023L2.651,556.36z"/>
<path d="M12.768,558.18l-0.405-0.063l-0.178-0.369c-0.041-0.085-0.127-0.141-0.222-0.141s-0.182,0.053-0.225,0.137l-0.186,0.365
	l-0.406,0.056c-0.094,0.013-0.172,0.077-0.203,0.167s-0.007,0.189,0.061,0.257l0.291,0.289l-0.073,0.402
	c-0.017,0.094,0.02,0.188,0.097,0.245c0.076,0.057,0.178,0.064,0.262,0.021l0.365-0.188l0.361,0.194
	c0.083,0.045,0.185,0.039,0.262-0.017c0.078-0.055,0.117-0.148,0.102-0.242l-0.065-0.405l0.296-0.282
	c0.068-0.066,0.093-0.165,0.065-0.255C12.939,558.26,12.862,558.193,12.768,558.18L12.768,558.18z M12.167,558.619
	c-0.059,0.057-0.087,0.14-0.074,0.221l0.006,0.035l-0.032-0.017c-0.072-0.039-0.159-0.041-0.232-0.003l-0.032,0.017l0.006-0.036
	c0.015-0.08-0.012-0.163-0.069-0.221l-0.026-0.025l0.036-0.005c0.082-0.011,0.152-0.062,0.189-0.135l0.016-0.032l0.016,0.033
	c0.035,0.073,0.105,0.125,0.186,0.138l0.036,0.006L12.167,558.619z"/>
<path d="M0.114,558.176l-0.417-0.064l-0.183-0.38c-0.041-0.086-0.127-0.141-0.222-0.142c-0.094,0-0.181,0.053-0.225,0.137
	l-0.19,0.377l-0.417,0.057c-0.094,0.012-0.173,0.077-0.203,0.167s-0.007,0.189,0.061,0.256l0.299,0.298l-0.076,0.415
	c-0.017,0.094,0.021,0.188,0.097,0.245c0.076,0.056,0.178,0.064,0.262,0.021l0.375-0.192l0.371,0.199
	c0.083,0.046,0.186,0.039,0.263-0.016c0.077-0.056,0.116-0.149,0.102-0.243l-0.067-0.416l0.305-0.292
	c0.068-0.064,0.094-0.164,0.065-0.255C0.284,558.257,0.207,558.19,0.114,558.176L0.114,558.176z M-0.496,558.624
	c-0.06,0.057-0.087,0.139-0.074,0.22l0.008,0.047l-0.042-0.022c-0.072-0.039-0.159-0.039-0.231-0.003l-0.043,0.022l0.008-0.047
	c0.015-0.081-0.011-0.163-0.069-0.222l-0.034-0.033l0.047-0.007c0.082-0.011,0.152-0.061,0.189-0.134l0.021-0.043l0.021,0.043
	c0.035,0.074,0.105,0.125,0.186,0.138l0.047,0.008L-0.496,558.624z"/>
<path d="M7.875,563.061h1.449c0.177,0,0.32-0.144,0.32-0.321c0-0.177-0.144-0.319-0.32-0.319H7.875c-0.177,0-0.32,0.143-0.32,0.319
	C7.555,562.917,7.698,563.061,7.875,563.061z"/>
</svg>
