<?xml version="1.0" encoding="utf-8"?>
<!-- Generator: Adobe Illustrator 15.1.0, SVG Export Plug-In . SVG Version: 6.00 Build 0)  -->
<!DOCTYPE svg PUBLIC "-//W3C//DTD SVG 1.1//EN" "http://www.w3.org/Graphics/SVG/1.1/DTD/svg11.dtd">
<svg version="1.1" id="Layer_1" xmlns="http://www.w3.org/2000/svg" xmlns:xlink="http://www.w3.org/1999/xlink" x="0px" y="0px"
	 width="16.712px" height="16.712px" viewBox="325.636 192.953 16.712 16.712"
	 enable-background="new 325.636 192.953 16.712 16.712" xml:space="preserve">
<g transform="translate(0,-952.36218)">
	<path d="M329.569,1145.316c-2.179,0-3.933,1.754-3.933,3.933v8.847c0,2.179,1.754,3.933,3.933,3.933h8.847
		c2.179,0,3.933-1.754,3.933-3.933v-8.847c0-2.179-1.754-3.933-3.933-3.933H329.569L329.569,1145.316z M338.908,1147.773
		c0.543,0,0.982,0.44,0.982,0.983s-0.44,0.983-0.982,0.983c-0.544,0-0.983-0.44-0.983-0.983S338.364,1147.773,338.908,1147.773z
		 M333.993,1149.493c2.302,0,4.178,1.876,4.178,4.178s-1.876,4.179-4.178,4.179c-2.303,0-4.179-1.877-4.179-4.179
		S331.69,1149.493,333.993,1149.493z M333.993,1150.477c-1.771,0-3.195,1.425-3.195,3.194c0,1.771,1.425,3.195,3.195,3.195
		c1.77,0,3.194-1.425,3.194-3.195C337.187,1151.901,335.762,1150.477,333.993,1150.477z"/>
</g>
</svg>
