<?xml version="1.0" encoding="utf-8"?>
<!-- Generator: Adobe Illustrator 15.1.0, SVG Export Plug-In . SVG Version: 6.00 Build 0)  -->
<!DOCTYPE svg PUBLIC "-//W3C//DTD SVG 1.1//EN" "http://www.w3.org/Graphics/SVG/1.1/DTD/svg11.dtd">
<svg version="1.1" id="Layer_1" xmlns="http://www.w3.org/2000/svg" xmlns:xlink="http://www.w3.org/1999/xlink" x="0px" y="0px"
	 width="18.255px" height="21.322px" viewBox="54.766 608.566 18.255 21.322" enable-background="new 54.766 608.566 18.255 21.322"
	 xml:space="preserve">
<g>
	<path d="M72.411,612.042h-2.825v-2.825c0-0.359-0.292-0.65-0.65-0.65h-13.52c-0.359,0-0.65,0.291-0.65,0.65v16.165
		c0,0.313,0.179,0.605,0.448,0.763c0.27,0.157,0.628,0.135,0.875-0.045l1.569-1.031l0.583,0.381v3.408
		c0,0.313,0.179,0.605,0.449,0.763c0.292,0.156,0.627,0.134,0.875-0.045l1.569-1.032l1.771,1.188c0.292,0.202,0.673,0.202,0.964,0
		l1.771-1.188l1.771,1.188c0.134,0.09,0.313,0.157,0.471,0.157c0.157,0,0.336-0.045,0.471-0.135l1.771-1.188l1.569,1.032
		c0.269,0.179,0.605,0.201,0.875,0.045c0.292-0.157,0.448-0.449,0.448-0.763v-16.165C73.061,612.355,72.77,612.042,72.411,612.042z
		 M58.914,612.042c-0.359,0-0.65,0.291-0.65,0.65v11.165l-0.112-0.067c-0.157-0.09-0.314-0.135-0.471-0.135
		c-0.157,0-0.336,0.045-0.493,0.157l-1.121,0.74v-14.686h12.197v2.175H58.914z M71.76,628.027l-1.121-0.739
		c-0.292-0.202-0.673-0.202-0.964,0l-1.771,1.188l-1.771-1.188c-0.292-0.202-0.673-0.202-0.964,0l-1.771,1.188l-1.771-1.188
		c-0.135-0.09-0.314-0.135-0.471-0.135c-0.157,0-0.336,0.045-0.471,0.135l-1.121,0.739v-14.663H71.76V628.027z"/>
	<path d="M68.308,619.732v0.358c0,0.09,0.09,0.179,0.18,0.179h0.426c0.09,0,0.179-0.089,0.179-0.179v-0.358
		c0.314-0.067,0.583-0.18,0.763-0.382c0.202-0.224,0.314-0.493,0.314-0.829c0-0.09,0-0.18-0.022-0.247
		c-0.022-0.089-0.022-0.156-0.067-0.224c-0.022-0.067-0.067-0.135-0.112-0.18c-0.045-0.067-0.089-0.112-0.134-0.157
		s-0.09-0.09-0.179-0.135c-0.067-0.044-0.135-0.066-0.18-0.111c-0.067-0.022-0.134-0.067-0.224-0.09s-0.157-0.067-0.224-0.09
		c-0.067-0.022-0.157-0.045-0.247-0.089c-0.202-0.067-0.359-0.135-0.449-0.202c-0.067-0.045-0.112-0.112-0.112-0.18
		s0.022-0.135,0.09-0.18s0.157-0.067,0.292-0.067c0.247,0,0.516,0.09,0.785,0.27c0.067,0.045,0.179,0.045,0.224-0.045l0.358-0.448
		c0.022-0.045,0.045-0.09,0.045-0.135s-0.022-0.09-0.067-0.112c-0.112-0.09-0.246-0.157-0.403-0.225
		c-0.157-0.066-0.314-0.134-0.493-0.179v-0.426c0-0.09-0.09-0.18-0.179-0.18h-0.426c-0.09,0-0.18,0.09-0.18,0.18v0.381
		c-0.313,0.045-0.583,0.18-0.762,0.381c-0.202,0.225-0.314,0.493-0.314,0.829c0,0.068,0,0.158,0.022,0.226
		c0.022,0.067,0.022,0.134,0.045,0.201s0.045,0.112,0.09,0.157c0.022,0.045,0.067,0.111,0.112,0.156s0.089,0.09,0.134,0.112
		c0.045,0.045,0.09,0.067,0.157,0.112c0.067,0.022,0.112,0.067,0.157,0.09s0.112,0.045,0.179,0.067
		c0.067,0.022,0.134,0.045,0.179,0.067c0.067,0.022,0.112,0.045,0.202,0.067c0.089,0.022,0.157,0.045,0.202,0.067
		c0.067,0.022,0.112,0.044,0.157,0.066s0.089,0.045,0.112,0.067s0.045,0.045,0.067,0.067s0.022,0.045,0.045,0.067
		c0,0.022,0.022,0.067,0.022,0.09c0,0.089-0.022,0.156-0.089,0.201c-0.157,0.112-0.471,0.112-0.785-0.022
		c-0.157-0.067-0.292-0.157-0.426-0.269c-0.045-0.022-0.089-0.045-0.134-0.045s-0.09,0.022-0.112,0.067l-0.359,0.448
		c-0.067,0.067-0.045,0.18,0.022,0.247C67.546,619.463,67.905,619.643,68.308,619.732z"/>
	<path d="M62.165,616.952h3.475c0.359,0,0.65-0.292,0.65-0.65c0-0.359-0.292-0.65-0.65-0.65h-3.475c-0.359,0-0.65,0.291-0.65,0.65
		C61.514,616.66,61.806,616.952,62.165,616.952z"/>
	<path d="M62.165,619.732h3.475c0.359,0,0.65-0.292,0.65-0.65c0-0.359-0.292-0.65-0.65-0.65h-3.475c-0.359,0-0.65,0.291-0.65,0.65
		C61.514,619.44,61.806,619.732,62.165,619.732z"/>
	<path d="M62.165,622.513h6.973c0.359,0,0.65-0.292,0.65-0.65c0-0.359-0.292-0.65-0.65-0.65h-6.973c-0.359,0-0.65,0.291-0.65,0.65
		C61.514,622.221,61.806,622.513,62.165,622.513z"/>
	<path d="M62.165,625.293h6.973c0.359,0,0.65-0.292,0.65-0.651c0-0.357-0.292-0.649-0.65-0.649h-6.973
		c-0.359,0-0.65,0.292-0.65,0.649C61.514,625.001,61.806,625.293,62.165,625.293z"/>
</g>
</svg>
