<?xml version="1.0" encoding="utf-8"?>
<!-- Generator: Adobe Illustrator 15.1.0, SVG Export Plug-In . SVG Version: 6.00 Build 0)  -->
<!DOCTYPE svg PUBLIC "-//W3C//DTD SVG 1.1//EN" "http://www.w3.org/Graphics/SVG/1.1/DTD/svg11.dtd">
<svg version="1.1" id="Layer_1" xmlns="http://www.w3.org/2000/svg" xmlns:xlink="http://www.w3.org/1999/xlink" x="0px" y="0px"
	 width="12.157px" height="17.897px" viewBox="4.208 9.268 12.157 17.897" enable-background="new 4.208 9.268 12.157 17.897"
	 xml:space="preserve">
<g>
	<g>
		<path d="M10.298,12.941h-0.012c-1.323,0.008-2.39,1.082-2.393,2.404c0,1.328,1.077,2.403,2.405,2.403
			c1.327,0,2.403-1.075,2.403-2.403C12.701,14.017,11.625,12.941,10.298,12.941z M10.309,16.988
			c-0.907,0.007-1.649-0.724-1.655-1.633v-0.011c0.002-0.903,0.73-1.636,1.632-1.644c0.907-0.006,1.649,0.725,1.655,1.632
			C11.948,16.241,11.217,16.982,10.309,16.988z M10.286,9.268c-3.356,0-6.076,2.72-6.076,6.076c-0.03,1.054,0.205,2.1,0.684,3.039
			c1.321,2.609,5.393,8.782,5.393,8.782s4.07-6.173,5.393-8.782c0.479-0.939,0.714-1.985,0.683-3.039
			C16.362,11.989,13.642,9.268,10.286,9.268z M14.998,18.041c-0.972,1.925-3.52,5.902-4.712,7.738
			c-1.192-1.836-3.74-5.81-4.712-7.734c-0.428-0.835-0.636-1.764-0.604-2.7c0-2.936,2.38-5.317,5.317-5.317
			c2.936,0,5.315,2.38,5.315,5.317C15.634,16.28,15.426,17.207,14.998,18.041z"/>
	</g>
</g>
</svg>
