<?xml version="1.0" encoding="utf-8"?>
<!-- Generator: Adobe Illustrator 15.1.0, SVG Export Plug-In  -->
<!DOCTYPE svg PUBLIC "-//W3C//DTD SVG 1.1//EN" "http://www.w3.org/Graphics/SVG/1.1/DTD/svg11.dtd" [
	<!ENTITY ns_flows "http://ns.adobe.com/Flows/1.0/">
]>
<svg version="1.1"
	 xmlns="http://www.w3.org/2000/svg" xmlns:xlink="http://www.w3.org/1999/xlink" xmlns:a="http://ns.adobe.com/AdobeSVGViewerExtensions/3.0/"
	 x="0px" y="0px" width="16px" height="17px" viewBox="0 0 16 17" enable-background="new 0 0 16 17" xml:space="preserve">
<defs>
</defs>
<path fill="#010101" d="M12.677,12.145l-1.3-0.264c-0.284-0.484-0.65-1.128-0.803-1.384c0.621-0.787,1.06-1.701,1.287-2.678
	c0.003-0.028,0.003-0.056,0-0.083V7.362c0.629-0.456,0.809-2.076,0.844-2.436c-0.026-1.341-0.586-2.616-1.557-3.542
	C10.368,0.534,9.277,0.035,8.124,0H7.889C7.854,0,4.145,0.18,3.439,3.84c-0.313,1.155-0.03,2.39,0.754,3.293l0,0v0.554
	c-0.003,0.025-0.003,0.051,0,0.076c0.225,1.023,0.701,1.974,1.384,2.768l-0.997,1.35L3.35,12.137
	C1.387,12.548-0.013,14.285,0,16.289c0,0.184,0.149,0.332,0.333,0.332h15.376c0.183,0,0.332-0.148,0.332-0.332
	C16.052,14.282,14.644,12.547,12.677,12.145z M6.941,13.583c-0.759-0.177-1.399-0.685-1.744-1.384l0.865-1.204
	c0.459,0.378,1.016,0.618,1.605,0.691l-0.574,1.932C7.046,13.595,6.994,13.583,6.941,13.583L6.941,13.583z M8.041,12.802
	l1.114,3.113H7.121L8.041,12.802z M8.373,11.729c0.627-0.071,1.219-0.331,1.696-0.747c0.173,0.312,0.457,0.803,0.692,1.197
	c-0.345,0.697-0.981,1.205-1.737,1.384L8.373,11.729z M4.097,4.006c0.355-1.843,1.918-3.209,3.792-3.314h0.229
	c0.972,0.035,1.893,0.447,2.567,1.148c0.845,0.787,1.343,1.877,1.384,3.031c-0.035,0.35-0.095,0.697-0.18,1.039V5.494l0,0
	c0-0.075-0.022-0.15-0.062-0.214c-0.125-0.18-0.318-0.208-0.851-0.284C10.02,4.898,9.085,4.65,8.207,4.262
	C7.431,3.811,6.796,3.151,6.374,2.359C6.317,2.25,6.205,2.181,6.083,2.179C5.962,2.183,5.851,2.245,5.785,2.345
	c-0.595,0.99-1.571,2.72-1.571,3.148v0.478C3.985,5.342,3.945,4.659,4.097,4.006z M4.886,5.535c0.327-0.811,0.72-1.592,1.176-2.338
	C6.526,3.89,7.157,4.456,7.896,4.843c0.94,0.421,1.943,0.689,2.968,0.796l0.339,0.048v1.959c-0.346,1.35-1.204,3.425-3.162,3.425
	c-1.633,0-2.768-1.765-3.155-3.411V5.535z M3.501,12.815l1.107-0.229c0.443,0.86,1.248,1.478,2.194,1.682h0.111l-0.491,1.646H0.72
	c0.149-1.543,1.285-2.811,2.803-3.127L3.501,12.815z M9.868,15.915l-0.609-1.723c0.894-0.231,1.648-0.83,2.076-1.646l1.217,0.242
	c1.522,0.312,2.663,1.58,2.81,3.127H9.868z"/>
</svg>
