<?xml version="1.0" encoding="utf-8"?>
<!-- Generator: Adobe Illustrator 15.0.0, SVG Export Plug-In . SVG Version: 6.00 Build 0)  -->
<!DOCTYPE svg PUBLIC "-//W3C//DTD SVG 1.1//EN" "http://www.w3.org/Graphics/SVG/1.1/DTD/svg11.dtd">
<svg version="1.1" id="Layer_1" xmlns="http://www.w3.org/2000/svg" xmlns:xlink="http://www.w3.org/1999/xlink" x="0px" y="0px"
	 width="14.333px" height="14.334px" viewBox="0 4 14.333 14.334" enable-background="new 0 4 14.333 14.334" xml:space="preserve">
<path fill="#010101" d="M14.332,15.627c-0.024-0.573-0.375-1.124-1.073-1.685c-0.819-0.659-1.49-0.979-2.05-0.979
	c-0.677,0-1.126,0.455-1.601,0.937l-0.15,0.151c-0.049,0.049-0.116,0.072-0.207,0.072c-0.211,0-0.54-0.138-0.925-0.386
	c-0.538-0.351-1.213-0.93-2.007-1.724C3.856,9.551,4.19,8.968,4.281,8.875l0.15-0.149c0.428-0.421,0.832-0.819,0.921-1.375
	c0.099-0.616-0.208-1.339-0.961-2.277C3.829,4.375,3.279,4.024,2.707,4c-0.833-0.03-1.45,0.62-1.992,1.189L0.706,5.199
	c-0.087,0.091-0.169,0.179-0.25,0.259c-0.604,0.605-0.608,1.914-0.009,3.501c0.653,1.732,1.941,3.613,3.628,5.299
	c1.688,1.686,3.568,2.975,5.298,3.627c0.778,0.293,1.508,0.448,2.112,0.448c0.611,0,1.092-0.158,1.389-0.457
	c0.074-0.073,0.152-0.146,0.234-0.226l0.034-0.032C13.715,17.076,14.366,16.457,14.332,15.627z M3.863,8.454
	C3.202,9.117,3.849,10.381,5.9,12.432c0.821,0.821,1.529,1.427,2.103,1.802c0.493,0.32,0.917,0.482,1.258,0.482
	c0.246,0,0.452-0.082,0.616-0.247l0.154-0.154c0.413-0.42,0.74-0.751,1.204-0.751c0.414,0,0.94,0.268,1.652,0.84
	c0.55,0.441,0.836,0.861,0.853,1.248c0.022,0.56-0.524,1.078-1.007,1.538c-0.098,0.091-0.192,0.181-0.279,0.269
	c-0.185,0.186-0.518,0.283-0.961,0.283c-0.54,0-1.201-0.142-1.911-0.41c-1.652-0.622-3.459-1.861-5.088-3.49
	s-2.869-3.437-3.493-5.09C0.503,7.427,0.453,6.299,0.876,5.878C0.961,5.792,1.047,5.7,1.138,5.605l0.007-0.008
	c0.448-0.471,0.956-1.005,1.502-1.005h0.001c0.011,0,0.022,0,0.033,0C3.068,4.61,3.487,4.896,3.929,5.445
	C5.25,7.089,4.812,7.52,4.016,8.304L3.863,8.454z"/>
</svg>
