<?xml version="1.0" encoding="utf-8"?>
<!-- Generator: Adobe Illustrator 15.1.0, SVG Export Plug-In . SVG Version: 6.00 Build 0)  -->
<!DOCTYPE svg PUBLIC "-//W3C//DTD SVG 1.1//EN" "http://www.w3.org/Graphics/SVG/1.1/DTD/svg11.dtd">
<svg version="1.1" id="Layer_1" xmlns="http://www.w3.org/2000/svg" xmlns:xlink="http://www.w3.org/1999/xlink" x="0px" y="0px"
	 width="13.864px" height="14.341px" viewBox="5.846 433.535 13.864 14.341" enable-background="new 5.846 433.535 13.864 14.341"
	 xml:space="preserve">
<g>
	<g>
		<path fill="#2C2F33" d="M19.71,443.571v-5.29c0-0.662-0.541-1.204-1.206-1.204h-1.452v-2.767c0-0.427-0.348-0.775-0.775-0.775
			H9.279c-0.427,0-0.775,0.349-0.775,0.775v2.767H7.052c-0.665,0-1.206,0.542-1.206,1.204v5.29c0,0.664,0.541,1.205,1.206,1.205
			h1.452v2.324c0,0.427,0.348,0.775,0.775,0.775h6.998c0.427,0,0.775-0.349,0.775-0.775v-2.327h1.452
			C19.171,444.773,19.71,444.235,19.71,443.571z M9.083,434.311c0-0.108,0.088-0.195,0.196-0.195h6.998
			c0.108,0,0.196,0.087,0.196,0.195v2.767h-7.39V434.311z M16.476,447.101c0,0.108-0.088,0.195-0.196,0.195h-7
			c-0.108,0-0.196-0.087-0.196-0.195v-5.883h7.39v5.883H16.476L16.476,447.101z M19.13,443.571c0,0.345-0.281,0.626-0.626,0.626
			h-1.452v-3.269c0-0.162-0.128-0.29-0.29-0.29H8.793c-0.161,0-0.29,0.128-0.29,0.29v3.269H7.052c-0.346,0-0.627-0.281-0.627-0.626
			v-5.29c0-0.345,0.281-0.625,0.627-0.625h11.452c0.346,0,0.626,0.28,0.626,0.625V443.571L19.13,443.571z"/>
		<path fill="#2C2F33" d="M7.906,438.851c-0.076,0-0.149,0.031-0.205,0.084c-0.053,0.057-0.084,0.128-0.084,0.204
			c0,0.077,0.032,0.149,0.084,0.207c0.056,0.052,0.129,0.084,0.205,0.084c0.076,0,0.149-0.032,0.205-0.084
			c0.052-0.054,0.084-0.13,0.084-0.207c0-0.076-0.032-0.147-0.084-0.204C8.059,438.882,7.982,438.851,7.906,438.851z"/>
		<path fill="#2C2F33" d="M10.728,444.546h4.105c0.162,0,0.291-0.129,0.291-0.289c0-0.162-0.129-0.29-0.291-0.29h-4.105
			c-0.161,0-0.291,0.128-0.291,0.29C10.438,444.417,10.567,444.546,10.728,444.546z"/>
		<path fill="#2C2F33" d="M10.728,446.188h4.105c0.162,0,0.291-0.128,0.291-0.29c0-0.161-0.129-0.29-0.291-0.29h-4.105
			c-0.161,0-0.291,0.129-0.291,0.29C10.438,446.06,10.567,446.188,10.728,446.188z"/>
		<path fill="#2C2F33" d="M10.728,442.904h4.105c0.162,0,0.291-0.13,0.291-0.29c0-0.161-0.129-0.29-0.291-0.29h-4.105
			c-0.161,0-0.291,0.129-0.291,0.29C10.438,442.774,10.567,442.904,10.728,442.904z"/>
	</g>
</g>
</svg>
