<?xml version="1.0" encoding="utf-8"?>
<!-- Generator: Adobe Illustrator 15.1.0, SVG Export Plug-In . SVG Version: 6.00 Build 0)  -->
<!DOCTYPE svg PUBLIC "-//W3C//DTD SVG 1.1//EN" "http://www.w3.org/Graphics/SVG/1.1/DTD/svg11.dtd">
<svg version="1.1" id="Layer_1" xmlns="http://www.w3.org/2000/svg" xmlns:xlink="http://www.w3.org/1999/xlink" x="0px" y="0px"
	 width="13.993px" height="13.992px" viewBox="13.948 611.58 13.993 13.992" enable-background="new 13.948 611.58 13.993 13.992"
	 xml:space="preserve">
<g>
	<path d="M27.241,611.58h-3.964c-0.129,0-0.233,0.104-0.233,0.233s0.104,0.233,0.233,0.233h3.964c0.128,0,0.233,0.104,0.233,0.232
		v0.233h-3.498c-0.129,0-0.233,0.104-0.233,0.233s0.104,0.233,0.233,0.233h3.498v1.632h-3.032c-0.128,0-0.233,0.104-0.233,0.233
		c0,0.13,0.104,0.233,0.233,0.233h3.032v0.233c0,0.129-0.104,0.233-0.233,0.233H24.21c-0.128,0-0.233,0.104-0.233,0.232
		s0.104,0.233,0.233,0.233h2.863l0.311,0.934h-0.143H22.06c0.99-0.433,1.684-1.419,1.684-2.565c0-1.543-1.255-2.799-2.798-2.799
		c-1.543,0-2.798,1.256-2.798,2.799c0,1.146,0.694,2.133,1.683,2.565h-5.181h-0.143l0.311-0.934h3.097
		c0.129,0,0.233-0.104,0.233-0.233s-0.104-0.232-0.233-0.232h-3.265c-0.128,0-0.233-0.104-0.233-0.233v-0.233h3.031
		c0.129,0,0.233-0.104,0.233-0.233c0-0.129-0.104-0.233-0.233-0.233h-3.031v-1.632h3.498c0.129,0,0.233-0.104,0.233-0.233
		s-0.104-0.233-0.233-0.233h-3.498v-0.233c0-0.128,0.104-0.232,0.233-0.232h4.198c0.129,0,0.233-0.104,0.233-0.233
		s-0.104-0.233-0.233-0.233h-4.198c-0.386,0-0.699,0.314-0.699,0.699v0.467v2.099v0.467c0,0.277,0.164,0.517,0.399,0.629
		l-0.387,1.163c-0.024,0.07-0.012,0.148,0.032,0.21c0.013,0.017,0.028,0.032,0.044,0.045l-0.018,0.052h0.162h0.233v6.806
		c-0.271,0.097-0.466,0.354-0.466,0.657v0.466c0,0.13,0.104,0.233,0.233,0.233h13.526c0.129,0,0.233-0.104,0.233-0.233v-0.466
		c0-0.304-0.196-0.561-0.467-0.657v-6.806h0.233h0.162l-0.017-0.052c0.017-0.013,0.032-0.027,0.044-0.045
		c0.044-0.062,0.056-0.14,0.032-0.21l-0.387-1.163c0.235-0.112,0.399-0.352,0.399-0.629v-0.467v-2.099v-0.467
		C27.941,611.895,27.627,611.58,27.241,611.58z M20.945,612.047c1.286,0,2.332,1.046,2.332,2.332c0,1.285-1.046,2.332-2.332,2.332
		c-1.286,0-2.332-1.047-2.332-2.332C18.613,613.093,19.659,612.047,20.945,612.047z M27.474,625.105H14.415v-0.232
		c0-0.129,0.104-0.233,0.233-0.233h5.131h2.332h5.13c0.128,0,0.233,0.104,0.233,0.233V625.105z M21.878,622.308h-1.866v-0.467h1.866
		V622.308z M21.878,621.375h-1.866v-3.032h1.866V621.375z M20.012,622.773h1.866v1.399h-1.866V622.773z M27.008,624.173h-4.664
		v-1.632v-0.934v-3.497c0-0.13-0.104-0.233-0.233-0.233h-2.332c-0.129,0-0.233,0.104-0.233,0.233v3.497v0.934v1.632h-4.664v-6.763
		h12.126V624.173z"/>
	<path d="M15.581,623.474h3.265c0.129,0,0.233-0.104,0.233-0.233v-0.933v-4.197c0-0.13-0.104-0.233-0.233-0.233h-3.265
		c-0.129,0-0.233,0.104-0.233,0.233v4.197v0.933C15.348,623.369,15.452,623.474,15.581,623.474z M18.613,623.007h-2.799v-0.466
		h2.799V623.007z M17.617,619.976H16.81c0.081-0.14,0.231-0.233,0.404-0.233C17.385,619.742,17.536,619.836,17.617,619.976z
		 M15.814,618.343h1.167v0.966c-0.401,0.104-0.7,0.466-0.7,0.899c0,0.086,0.048,0.157,0.117,0.198v0.035h0.116h1.399h0.116v-0.035
		c0.068-0.041,0.117-0.112,0.117-0.198c0-0.434-0.299-0.795-0.7-0.899v-0.966h1.167v3.731h-2.799V618.343z"/>
	<path d="M23.044,623.474h3.265c0.129,0,0.233-0.104,0.233-0.233v-0.933v-4.197c0-0.13-0.104-0.233-0.233-0.233h-3.265
		c-0.128,0-0.233,0.104-0.233,0.233v4.197v0.933C22.81,623.369,22.915,623.474,23.044,623.474z M26.075,623.007h-2.798v-0.466h2.798
		V623.007z M24.676,619.742c0.172,0,0.323,0.094,0.404,0.233h-0.808C24.353,619.836,24.504,619.742,24.676,619.742z M23.277,618.343
		h1.166v0.966c-0.401,0.104-0.699,0.466-0.699,0.899c0,0.13,0.104,0.233,0.233,0.233h1.399c0.128,0,0.233-0.104,0.233-0.233
		c0-0.434-0.299-0.795-0.7-0.899v-0.966h1.166v3.731h-2.798V618.343z"/>
	<path d="M19.779,615.281v0.729c0,0.129,0.104,0.233,0.233,0.233h1.866c0.129,0,0.233-0.104,0.233-0.233v-0.729
		c0.402-0.103,0.699-0.469,0.699-0.902c0-0.44-0.307-0.812-0.718-0.908c-0.098-0.544-0.575-0.958-1.147-0.958
		s-1.049,0.414-1.147,0.958c-0.412,0.097-0.719,0.468-0.719,0.908C19.079,614.813,19.377,615.179,19.779,615.281z M19.964,613.917
		c0.301,0.154,0.292,0.375,0.285,0.422c-0.022,0.124,0.06,0.244,0.186,0.269c0.015,0.003,0.03,0.004,0.044,0.004
		c0.109,0,0.208-0.078,0.229-0.189c0.038-0.198-0.02-0.609-0.449-0.874c0.061-0.322,0.345-0.568,0.687-0.568
		c0.386,0,0.699,0.313,0.699,0.699c0,0.13,0.104,0.233,0.233,0.233c0.257,0,0.466,0.209,0.466,0.467
		c0,0.257-0.209,0.466-0.466,0.466c-0.129,0-0.233,0.104-0.233,0.233v0.699h-1.399v-0.699c0-0.129-0.105-0.233-0.233-0.233
		c-0.257,0-0.466-0.209-0.466-0.466C19.546,614.138,19.73,613.941,19.964,613.917z"/>
</g>
</svg>
