<?xml version="1.0" encoding="utf-8"?>
<!-- Generator: Adobe Illustrator 15.1.0, SVG Export Plug-In . SVG Version: 6.00 Build 0)  -->
<!DOCTYPE svg PUBLIC "-//W3C//DTD SVG 1.1//EN" "http://www.w3.org/Graphics/SVG/1.1/DTD/svg11.dtd">
<svg version="1.1" id="Layer_1" xmlns="http://www.w3.org/2000/svg" xmlns:xlink="http://www.w3.org/1999/xlink" x="0px" y="0px"
	 width="8.99px" height="8.989px" viewBox="0 18.226 8.99 8.989" enable-background="new 0 18.226 8.99 8.989" xml:space="preserve"
	>
<path d="M8.88,26.577l-2.161-2.161c0.535-0.653,0.858-1.49,0.858-2.402c0-2.091-1.697-3.788-3.788-3.788
	C1.695,18.226,0,19.923,0,22.015c0,2.091,1.695,3.788,3.789,3.788c0.912,0,1.746-0.32,2.399-0.856l2.161,2.159
	c0.147,0.146,0.383,0.146,0.53,0C9.026,26.96,9.026,26.723,8.88,26.577z M3.789,25.049c-1.675,0-3.037-1.361-3.037-3.035
	c0-1.673,1.361-3.036,3.037-3.036c1.673,0,3.036,1.363,3.036,3.036C6.825,23.688,5.462,25.049,3.789,25.049z"/>
</svg>
