<?xml version="1.0" encoding="utf-8"?>
<!-- Generator: Adobe Illustrator 15.1.0, SVG Export Plug-In . SVG Version: 6.00 Build 0)  -->
<!DOCTYPE svg PUBLIC "-//W3C//DTD SVG 1.1//EN" "http://www.w3.org/Graphics/SVG/1.1/DTD/svg11.dtd">
<svg version="1.1" id="Layer_1" xmlns="http://www.w3.org/2000/svg" xmlns:xlink="http://www.w3.org/1999/xlink" x="0px" y="0px"
	 width="26.576px" height="27.731px" viewBox="12.402 616.443 26.576 27.731" enable-background="new 12.402 616.443 26.576 27.731"
	 xml:space="preserve">
<g>
	<g>
		<path d="M33.778,644.175c-1.592,0-2.889-1.297-2.889-2.889s1.296-2.889,2.889-2.889s2.889,1.297,2.889,2.889
			S35.37,644.175,33.778,644.175z M33.778,639.553c-0.956,0-1.733,0.778-1.733,1.733c0,0.956,0.777,1.733,1.733,1.733
			s1.733-0.777,1.733-1.733C35.511,640.331,34.733,639.553,33.778,639.553z"/>
		<path d="M22.223,644.175c-1.592,0-2.889-1.297-2.889-2.889s1.296-2.889,2.889-2.889s2.889,1.297,2.889,2.889
			S23.815,644.175,22.223,644.175z M22.223,639.553c-0.956,0-1.733,0.778-1.733,1.733c0,0.956,0.777,1.733,1.733,1.733
			s1.733-0.777,1.733-1.733C23.956,640.331,23.178,639.553,22.223,639.553z"/>
		<path d="M36.089,637.242H22.753c-1.921,0-3.589-1.367-3.965-3.25l-2.816-14.082h-2.993c-0.319,0-0.578-0.259-0.578-0.578
			c0-0.318,0.259-0.577,0.578-0.577h3.466c0.275,0,0.512,0.194,0.566,0.464l2.909,14.545c0.27,1.347,1.459,2.323,2.832,2.323h13.335
			c0.319,0,0.578,0.259,0.578,0.577C36.666,636.983,36.407,637.242,36.089,637.242z"/>
		<path d="M35.203,632.62H19.334c-0.319,0-0.578-0.259-0.578-0.578c0-0.318,0.259-0.577,0.578-0.577h15.869
			c0.873,0,1.612-0.653,1.721-1.519l0.821-6.569H17.601c-0.319,0-0.578-0.26-0.578-0.578c0-0.319,0.259-0.578,0.578-0.578H38.4
			c0.166,0,0.323,0.072,0.433,0.195c0.11,0.124,0.161,0.29,0.14,0.454l-0.902,7.22C37.89,631.533,36.657,632.62,35.203,632.62z"/>
	</g>
	<path d="M28,623.377c-0.148,0-0.296-0.057-0.409-0.169l-5.369-5.37l-2.649,2.65l1.902,1.901c0.226,0.226,0.226,0.592,0,0.817
		c-0.225,0.225-0.591,0.225-0.817,0l-2.311-2.312c-0.225-0.226-0.225-0.592,0-0.816l3.467-3.467c0.225-0.226,0.591-0.226,0.817,0
		l5.777,5.777c0.225,0.226,0.225,0.592,0,0.817C28.296,623.32,28.148,623.377,28,623.377z"/>
	<path d="M31.467,623.377c-0.319,0-0.578-0.26-0.578-0.578V617.6h-3.466v4.044c0,0.318-0.259,0.577-0.578,0.577
		s-0.578-0.259-0.578-0.577v-4.622c0-0.319,0.259-0.578,0.578-0.578h4.622c0.319,0,0.578,0.259,0.578,0.578v5.777
		C32.045,623.117,31.786,623.377,31.467,623.377z"/>
	<path d="M34.851,623.377c-0.148,0-0.296-0.057-0.409-0.169c-0.226-0.226-0.226-0.592,0-0.817l1.693-1.692
		c0.343-0.342,0.531-0.798,0.531-1.282c0-0.485-0.188-0.939-0.531-1.283c-0.708-0.708-1.859-0.708-2.566-0.002l-1.693,1.692
		c-0.225,0.226-0.592,0.226-0.817,0s-0.225-0.592,0-0.816l1.693-1.693c1.158-1.157,3.041-1.157,4.199,0
		c0.562,0.563,0.872,1.309,0.872,2.101c0,0.793-0.31,1.539-0.87,2.1l-1.693,1.693C35.147,623.32,34.999,623.377,34.851,623.377z"/>
</g>
</svg>
