<?xml version="1.0" encoding="utf-8"?>
<!-- Generator: Adobe Illustrator 15.1.0, SVG Export Plug-In . SVG Version: 6.00 Build 0)  -->
<!DOCTYPE svg PUBLIC "-//W3C//DTD SVG 1.1//EN" "http://www.w3.org/Graphics/SVG/1.1/DTD/svg11.dtd">
<svg version="1.1" id="Capa_1" xmlns="http://www.w3.org/2000/svg" xmlns:xlink="http://www.w3.org/1999/xlink" x="0px" y="0px"
	 width="18.426px" height="16.891px" viewBox="0 676.891 18.426 16.891" enable-background="new 0 676.891 18.426 16.891"
	 xml:space="preserve">
<g>
	<g>
		<path d="M18.35,679.348c-0.077-0.077-0.153-0.153-0.307-0.153H3.455l-0.384-1.996c0-0.154-0.23-0.308-0.384-0.308H0.384
			c-0.23,0-0.384,0.153-0.384,0.384s0.154,0.384,0.384,0.384h1.997l1.842,9.366c0.23,1.229,1.382,2.15,2.61,2.15h8.829
			c0.23,0,0.384-0.153,0.384-0.384s-0.154-0.384-0.384-0.384H6.91c-0.614,0-1.229-0.308-1.535-0.845l11.209-1.536
			c0.153,0,0.307-0.153,0.307-0.307l1.536-6.143C18.427,679.577,18.427,679.425,18.35,679.348z M16.2,685.336L4.99,686.795
			l-1.382-6.91h13.896L16.2,685.336z"/>
	</g>
</g>
<g>
	<g>
		<path d="M6.526,689.942c-1.075,0-1.919,0.845-1.919,1.92c0,1.074,0.845,1.919,1.919,1.919c1.075,0,1.919-0.845,1.919-1.919
			C8.446,690.787,7.601,689.942,6.526,689.942z M6.526,693.014c-0.614,0-1.151-0.538-1.151-1.151c0-0.615,0.537-1.152,1.151-1.152
			s1.151,0.537,1.151,1.152C7.677,692.476,7.14,693.014,6.526,693.014z"/>
	</g>
</g>
<g>
	<g>
		<path d="M14.204,689.942c-1.075,0-1.919,0.845-1.919,1.92c0,1.074,0.845,1.919,1.919,1.919s1.919-0.845,1.919-1.919
			C16.123,690.787,15.279,689.942,14.204,689.942z M14.204,693.014c-0.614,0-1.152-0.538-1.152-1.151
			c0-0.615,0.538-1.152,1.152-1.152s1.152,0.537,1.152,1.152C15.356,692.476,14.818,693.014,14.204,693.014z"/>
	</g>
</g>
</svg>
