<?xml version="1.0" encoding="utf-8"?>
<!-- Generator: Adobe Illustrator 15.1.0, SVG Export Plug-In . SVG Version: 6.00 Build 0)  -->
<!DOCTYPE svg PUBLIC "-//W3C//DTD SVG 1.1//EN" "http://www.w3.org/Graphics/SVG/1.1/DTD/svg11.dtd">
<svg version="1.1" id="Layer_1" xmlns="http://www.w3.org/2000/svg" xmlns:xlink="http://www.w3.org/1999/xlink" x="0px" y="0px"
	 width="12.82px" height="12.82px" viewBox="9.301 622.054 12.82 12.82" enable-background="new 9.301 622.054 12.82 12.82"
	 xml:space="preserve">
<title>medical-bathroom-relax-shower-beauty-hygiene-shower head</title>
<g>
	<path d="M9.761,626.4l0.044,0.029c0.089,0.059,0.188,0.104,0.292,0.133c-0.112,0.145-0.174,0.321-0.175,0.504v0.157
		c0,0.456,0.37,0.826,0.827,0.826h0.156c0.183-0.001,0.36-0.063,0.504-0.175c0.029,0.104,0.074,0.202,0.134,0.292l0.029,0.043
		c0.191,0.288,0.515,0.461,0.86,0.461h0.355c0.346,0,0.669-0.173,0.861-0.461l0.029-0.043c0.06-0.09,0.104-0.188,0.133-0.292
		c0.144,0.111,0.321,0.174,0.504,0.175h0.157c0.457,0,0.827-0.37,0.827-0.826v-0.157c-0.002-0.183-0.063-0.359-0.176-0.504
		c0.104-0.028,0.202-0.074,0.292-0.133l0.043-0.029c0.288-0.191,0.461-0.515,0.461-0.86v-0.355c0-0.346-0.173-0.669-0.461-0.86
		l-0.043-0.029c-0.09-0.06-0.188-0.104-0.292-0.133c0.112-0.145,0.174-0.321,0.176-0.504v-0.157c0-0.456-0.37-0.827-0.827-0.827
		h-0.157c-0.183,0.002-0.36,0.064-0.504,0.176c-0.029-0.104-0.074-0.202-0.133-0.292l-0.029-0.043
		c-0.192-0.288-0.515-0.462-0.861-0.461h-0.355c-0.346-0.001-0.669,0.173-0.86,0.461l-0.029,0.043
		c-0.06,0.09-0.105,0.188-0.134,0.292c-0.144-0.111-0.321-0.174-0.504-0.176h-0.156c-0.457,0-0.827,0.371-0.827,0.827v0.157
		c0.001,0.183,0.063,0.359,0.175,0.504c-0.104,0.028-0.202,0.073-0.292,0.133l-0.044,0.029c-0.288,0.191-0.461,0.515-0.46,0.86
		v0.355C9.301,625.886,9.473,626.209,9.761,626.4z M11.516,626.714c-0.097,0.16-0.148,0.344-0.148,0.531v0.1l-0.171,0.171
		c-0.078,0.077-0.183,0.121-0.292,0.121h-0.156c-0.229,0-0.414-0.185-0.414-0.413v-0.157c0-0.109,0.043-0.215,0.121-0.293
		l0.171-0.17h0.099c0.187,0,0.371-0.052,0.532-0.148l0.645-0.387L11.516,626.714z M12.61,624.949c0.229,0,0.413,0.185,0.413,0.413
		s-0.185,0.414-0.413,0.414s-0.414-0.186-0.414-0.414S12.381,624.949,12.61,624.949z M13.436,627.594
		c0.001,0.122-0.036,0.241-0.103,0.344l-0.029,0.043c-0.115,0.174-0.309,0.277-0.517,0.276h-0.355
		c-0.208,0.001-0.402-0.103-0.517-0.276l-0.029-0.043c-0.068-0.103-0.104-0.222-0.104-0.344v-0.349c0-0.112,0.03-0.222,0.088-0.319
		l0.471-0.785c0.021,0.007,0.04,0.014,0.061,0.019v0.444h0.414v-0.443c0.021-0.006,0.042-0.013,0.061-0.019l0.471,0.785
		c0.058,0.097,0.088,0.207,0.088,0.318V627.594z M14.884,627.224c0,0.229-0.185,0.413-0.414,0.413h-0.157
		c-0.109,0-0.215-0.044-0.292-0.121l-0.171-0.171v-0.1c0-0.188-0.051-0.371-0.147-0.531l-0.387-0.646l0.645,0.387
		c0.161,0.097,0.345,0.148,0.532,0.148h0.099l0.171,0.17c0.077,0.078,0.121,0.184,0.121,0.293V627.224z M15.228,624.669
		c0.173,0.114,0.276,0.309,0.276,0.516v0.355c0.001,0.208-0.103,0.402-0.276,0.517l-0.044,0.029
		c-0.102,0.068-0.222,0.104-0.344,0.104h-0.348c-0.112,0-0.223-0.03-0.319-0.088l-0.786-0.472c0.006-0.021,0.013-0.04,0.019-0.061
		h0.443v-0.414h-0.443c-0.005-0.021-0.012-0.041-0.019-0.061l0.786-0.472c0.096-0.057,0.207-0.088,0.319-0.088h0.348
		c0.122,0,0.242,0.035,0.344,0.104L15.228,624.669z M13.702,624.012c0.097-0.161,0.147-0.346,0.147-0.532v-0.099l0.171-0.172
		c0.078-0.077,0.183-0.121,0.292-0.121h0.157c0.229,0,0.414,0.186,0.414,0.413v0.157c0,0.109-0.044,0.215-0.121,0.292l-0.171,0.172
		h-0.099c-0.188,0-0.372,0.051-0.532,0.147l-0.645,0.387L13.702,624.012z M11.782,623.132c0-0.123,0.036-0.243,0.104-0.345
		l0.029-0.043c0.115-0.174,0.31-0.277,0.517-0.277h0.355c0.208,0,0.402,0.104,0.517,0.277l0.029,0.043
		c0.067,0.102,0.104,0.222,0.103,0.345v0.348c0,0.111-0.03,0.222-0.088,0.318l-0.471,0.786c-0.021-0.007-0.04-0.014-0.061-0.019
		v-0.443h-0.414v0.442c-0.021,0.006-0.042,0.012-0.061,0.019l-0.471-0.785c-0.058-0.097-0.088-0.207-0.088-0.318V623.132z
		 M10.335,623.501c0-0.228,0.185-0.413,0.414-0.413h0.156c0.11,0,0.215,0.044,0.292,0.121l0.171,0.172v0.099
		c0,0.187,0.051,0.371,0.148,0.532l0.387,0.645l-0.645-0.387c-0.161-0.097-0.345-0.147-0.532-0.147h-0.099l-0.171-0.172
		c-0.078-0.077-0.121-0.183-0.121-0.292V623.501z M9.715,625.185c0-0.207,0.103-0.402,0.276-0.517l0.043-0.029
		c0.102-0.068,0.222-0.104,0.344-0.104h0.348c0.112,0,0.223,0.031,0.319,0.088l0.786,0.472c-0.006,0.021-0.013,0.04-0.019,0.061
		h-0.444v0.414h0.443c0.005,0.021,0.012,0.041,0.019,0.061l-0.786,0.472c-0.096,0.058-0.207,0.087-0.318,0.088h-0.348
		c-0.123,0.001-0.242-0.035-0.344-0.104l-0.043-0.029c-0.173-0.114-0.277-0.309-0.276-0.517V625.185z"/>
	<path d="M21.501,629.085H9.922c-0.342-0.002-0.62,0.274-0.62,0.617c-0.001,0.263,0.165,0.497,0.413,0.585v1.898
		c0.002,1.484,1.204,2.687,2.688,2.688h6.617c1.484-0.002,2.687-1.204,2.688-2.688v-1.898c0.322-0.114,0.492-0.467,0.378-0.79
		C21.998,629.249,21.764,629.083,21.501,629.085z M21.294,632.186c-0.001,1.256-1.019,2.273-2.274,2.275h-6.617
		c-1.255-0.002-2.273-1.02-2.274-2.275v-1.861h10.339v1.654c-0.001,0.914-0.741,1.653-1.654,1.654h-1.861v0.414h1.861
		c1.142-0.001,2.067-0.927,2.068-2.068v-1.654h0.413V632.186z M21.501,629.911H9.922c-0.115,0-0.207-0.093-0.207-0.207
		c0-0.113,0.092-0.206,0.207-0.206h11.579c0.114,0,0.207,0.093,0.207,0.206C21.708,629.818,21.615,629.911,21.501,629.911z"/>
	<path d="M22.121,622.916v-0.242c0-0.343-0.277-0.62-0.62-0.62h-0.242c-0.165-0.001-0.322,0.065-0.438,0.182l-0.146,0.146
		l-0.267-0.268c-0.081-0.08-0.212-0.08-0.292,0l-0.827,0.827c-0.081,0.081-0.081,0.212,0,0.293l0.267,0.267l-2.627,2.628
		c-0.117,0.116-0.182,0.273-0.182,0.438v0.242c0,0.343,0.278,0.621,0.62,0.621h0.243c0.165,0,0.323-0.065,0.438-0.183l2.627-2.627
		l0.268,0.268c0.081,0.08,0.211,0.08,0.292,0l0.827-0.827c0.081-0.081,0.081-0.212,0-0.293l-0.268-0.268l0.146-0.146
		C22.056,623.239,22.122,623.081,22.121,622.916z M17.754,626.956c-0.039,0.038-0.091,0.061-0.146,0.061h-0.243
		c-0.114,0-0.206-0.093-0.206-0.207v-0.242c0-0.055,0.021-0.107,0.06-0.146l2.627-2.628l0.535,0.535L17.754,626.956z M21.087,624.45
		l-1.362-1.362l0.535-0.534l0.268,0.267l0.827,0.827l0.268,0.268L21.087,624.45z M20.966,622.674l0.146-0.146
		c0.039-0.039,0.091-0.062,0.146-0.062h0.242c0.114,0,0.207,0.094,0.207,0.207v0.242c0,0.056-0.022,0.107-0.061,0.146l-0.146,0.146
		L20.966,622.674z"/>
	<path d="M15.504,628.05c0,0.344,0.278,0.621,0.621,0.621c0.342,0,0.62-0.277,0.62-0.621c0-0.342-0.278-0.619-0.62-0.619
		C15.782,627.431,15.504,627.708,15.504,628.05z M16.125,627.844c0.114,0,0.207,0.093,0.207,0.206c0,0.114-0.093,0.207-0.207,0.207
		s-0.207-0.093-0.207-0.207C15.918,627.937,16.01,627.844,16.125,627.844z"/>
</g>
</svg>
