<?xml version="1.0" encoding="utf-8"?>
<!-- Generator: Adobe Illustrator 15.1.0, SVG Export Plug-In . SVG Version: 6.00 Build 0)  -->
<!DOCTYPE svg PUBLIC "-//W3C//DTD SVG 1.1//EN" "http://www.w3.org/Graphics/SVG/1.1/DTD/svg11.dtd">
<svg version="1.1" id="Layer_1" xmlns="http://www.w3.org/2000/svg" xmlns:xlink="http://www.w3.org/1999/xlink" x="0px" y="0px"
	 width="14.221px" height="14.231px" viewBox="61.653 569.82 14.221 14.231" enable-background="new 61.653 569.82 14.221 14.231"
	 xml:space="preserve">
<path d="M66.547,584.052c-0.036,0-0.089,0-0.125,0c-0.267-0.035-0.499-0.196-0.624-0.428l-1.177-2.123l-0.5,0.5
	c-0.053,0.054-0.143,0.089-0.214,0.089c-0.089,0-0.161-0.035-0.214-0.089c-0.053-0.054-0.089-0.143-0.089-0.214
	c0-0.09,0.036-0.161,0.089-0.215l0.5-0.499l-2.104-1.177c-0.231-0.125-0.392-0.357-0.428-0.624c-0.036-0.268,0.053-0.535,0.25-0.731
	l0.232-0.249c0.161-0.161,0.375-0.251,0.606-0.251c0.09,0,0.161,0.019,0.25,0.036l2.086,0.643l2.818-2.818h-0.018l0.446-0.445l0,0
	l1.837-1.837l-6.884-2.104c-0.018,0-0.053-0.019-0.071-0.019c-0.071,0-0.125,0.019-0.16,0.072l-0.357,0.339
	c-0.053,0.053-0.089,0.124-0.071,0.196c0,0.071,0.054,0.143,0.125,0.178l4.851,2.711c0.089,0.054,0.143,0.124,0.161,0.231
	c0.018,0.107-0.018,0.196-0.089,0.268c-0.054,0.054-0.143,0.089-0.214,0.089c-0.054,0-0.107-0.017-0.143-0.035l-4.869-2.693
	c-0.25-0.142-0.41-0.374-0.428-0.659c-0.036-0.268,0.071-0.535,0.268-0.714l0.339-0.338c0.161-0.161,0.375-0.25,0.606-0.25
	c0.089,0,0.161,0.018,0.25,0.035l2.193,0.66l0.571-0.57c0.196-0.196,0.446-0.304,0.713-0.304s0.518,0.107,0.713,0.304
	c0.321,0.32,0.393,0.838,0.161,1.23l2.854,0.873l2.907-2.906c0.25-0.25,0.589-0.393,0.945-0.393c0.357,0,0.695,0.143,0.945,0.393
	c0.25,0.249,0.393,0.588,0.393,0.944c0,0.357-0.143,0.696-0.393,0.946l-2.871,2.906l0.856,2.818
	c0.143-0.071,0.303-0.125,0.482-0.125c0.267,0,0.517,0.106,0.713,0.285c0.392,0.393,0.392,1.034,0,1.427l-0.535,0.535l0.678,2.265
	c0.089,0.304,0.018,0.624-0.214,0.838l-0.357,0.357c-0.161,0.16-0.375,0.249-0.606,0.249c-0.036,0-0.071,0-0.107,0
	c-0.268-0.035-0.5-0.196-0.642-0.428l-2.71-4.851c-0.072-0.125-0.054-0.268,0.053-0.375c0.054-0.053,0.143-0.089,0.214-0.089
	c0.106,0,0.214,0.054,0.268,0.16l2.71,4.869c0.036,0.071,0.107,0.106,0.178,0.125c0.018,0,0.018,0,0.036,0
	c0.071,0,0.125-0.019,0.178-0.072l0.357-0.355c0.053-0.072,0.089-0.161,0.053-0.232l-2.104-6.902l-1.837,1.819l-0.018,0.018
	l-0.446,0.446l0,0l-2.854,2.854l0.625,2.069c0.089,0.303,0.018,0.624-0.214,0.855l-0.25,0.231
	C66.975,583.962,66.761,584.052,66.547,584.052L66.547,584.052z M66.333,583.303c0.036,0.071,0.107,0.107,0.178,0.125
	c0.018,0,0.018,0,0.036,0c0.071,0,0.125-0.018,0.161-0.071l0.25-0.232c0.072-0.071,0.089-0.16,0.054-0.231l-0.731-2.426l8.774-8.774
	c0.286-0.284,0.286-0.748,0-1.034c-0.143-0.143-0.321-0.214-0.517-0.214c-0.196,0-0.375,0.071-0.518,0.214l-8.756,8.757
	l-2.461-0.749c-0.018,0-0.054-0.018-0.071-0.018c-0.071,0-0.125,0.018-0.178,0.071l-0.232,0.249
	c-0.054,0.054-0.071,0.125-0.071,0.196c0.018,0.071,0.054,0.143,0.125,0.179l2.265,1.266l0.874-0.874
	c0.054-0.053,0.143-0.089,0.214-0.089c0.089,0,0.161,0.036,0.214,0.089c0.125,0.126,0.125,0.321,0,0.429l-0.874,0.873
	L66.333,583.303z M73.912,579.29l0.303-0.303c0.071-0.071,0.107-0.179,0.107-0.268c0-0.107-0.036-0.196-0.107-0.268
	c-0.071-0.071-0.178-0.107-0.267-0.107c-0.089,0-0.196,0.036-0.268,0.107l-0.018,0.018L73.912,579.29z M67.189,572.05l0.054-0.054
	c0.071-0.071,0.107-0.179,0.107-0.268c0-0.107-0.036-0.196-0.107-0.268c-0.072-0.071-0.178-0.107-0.268-0.107
	s-0.196,0.036-0.268,0.107l-0.339,0.339L67.189,572.05z M69.168,583.214c0.089,0,0.161-0.036,0.214-0.09l1.837-1.819
	c0.053-0.053,0.089-0.143,0.089-0.213c0-0.09-0.036-0.161-0.089-0.215c-0.054-0.053-0.143-0.089-0.214-0.089
	c-0.089,0-0.161,0.036-0.214,0.089l-1.837,1.802c-0.054,0.053-0.089,0.143-0.089,0.214c0,0.089,0.036,0.16,0.089,0.214
	C69.026,583.178,69.097,583.214,69.168,583.214L69.168,583.214z M62.784,576.829c0.089,0,0.16-0.035,0.214-0.089l1.819-1.819
	c0.125-0.125,0.125-0.321,0-0.428c-0.054-0.054-0.143-0.09-0.214-0.09c-0.089,0-0.161,0.036-0.214,0.09l-1.819,1.801
	c-0.125,0.125-0.125,0.321,0,0.429C62.623,576.794,62.712,576.829,62.784,576.829L62.784,576.829z M62.802,575.402
	c0.089,0,0.161-0.035,0.214-0.09l0.749-0.748c0.054-0.054,0.089-0.144,0.089-0.215c0-0.089-0.036-0.16-0.089-0.213
	c-0.053-0.055-0.143-0.09-0.214-0.09c-0.089,0-0.16,0.035-0.214,0.09l-0.749,0.748c-0.125,0.125-0.125,0.321,0,0.428
	C62.641,575.384,62.712,575.402,62.802,575.402L62.802,575.402z M70.577,583.195c0.089,0,0.161-0.035,0.214-0.089l0.749-0.749
	c0.053-0.054,0.089-0.143,0.089-0.214c0-0.089-0.036-0.16-0.089-0.214c-0.054-0.054-0.143-0.09-0.214-0.09
	c-0.089,0-0.16,0.036-0.214,0.09l-0.749,0.749c-0.125,0.125-0.125,0.32,0,0.428C70.417,583.16,70.506,583.195,70.577,583.195
	L70.577,583.195z"/>
</svg>
