<?xml version="1.0" encoding="utf-8"?>
<!-- Generator: Adobe Illustrator 15.1.0, SVG Export Plug-In . SVG Version: 6.00 Build 0)  -->
<!DOCTYPE svg PUBLIC "-//W3C//DTD SVG 1.1//EN" "http://www.w3.org/Graphics/SVG/1.1/DTD/svg11.dtd">
<svg version="1.1" id="Capa_1" xmlns="http://www.w3.org/2000/svg" xmlns:xlink="http://www.w3.org/1999/xlink" x="0px" y="0px"
	 width="17.639px" height="14.332px" viewBox="0 648.445 17.639 14.332" enable-background="new 0 648.445 17.639 14.332"
	 xml:space="preserve">
<g>
	<g>
		<path d="M17.639,650.142c-0.656,0.288-1.354,0.479-2.083,0.571c0.75-0.447,1.322-1.15,1.591-1.999
			c-0.699,0.417-1.471,0.712-2.293,0.876c-0.664-0.707-1.61-1.145-2.642-1.145c-2.002,0-3.614,1.625-3.614,3.617
			c0,0.287,0.024,0.563,0.084,0.824c-3.007-0.146-5.667-1.587-7.454-3.782c-0.312,0.541-0.495,1.161-0.495,1.828
			c0,1.252,0.645,2.362,1.606,3.005c-0.581-0.011-1.151-0.18-1.634-0.445c0,0.012,0,0.025,0,0.04c0,1.757,1.253,3.217,2.897,3.553
			c-0.294,0.081-0.615,0.119-0.948,0.119c-0.231,0-0.465-0.013-0.685-0.062c0.468,1.433,1.798,2.485,3.379,2.52
			c-1.23,0.962-2.792,1.542-4.484,1.542c-0.296,0-0.581-0.014-0.865-0.05c1.602,1.033,3.5,1.623,5.547,1.623
			c6.655,0,10.293-5.513,10.293-10.29c0-0.16-0.006-0.314-0.013-0.468C16.545,651.51,17.148,650.874,17.639,650.142z"/>
	</g>
</g>
</svg>
