<?xml version="1.0" encoding="utf-8"?>
<!-- Generator: Adobe Illustrator 23.0.1, SVG Export Plug-In . SVG Version: 6.00 Build 0)  -->
<svg version="1.1" id="Layer_1" xmlns="http://www.w3.org/2000/svg" xmlns:xlink="http://www.w3.org/1999/xlink" x="0px" y="0px"
	 viewBox="6.59 2.07 64.32 58.26" style="enable-background:new 6.59 2.07 64.32 58.26;" xml:space="preserve">
<g>
	<path d="M63.5,60.33v-3.46H46.85l1.85-0.95c3.27-1.67,6.14-3.95,8.54-6.78l0.15-0.18h6.11v-3.46l7.41,7.41L63.5,60.33z
		 M50.85,55.87H64.5v2.05l5-5l-5-5v2.05h-6.65C55.82,52.32,53.48,54.29,50.85,55.87z"/>
</g>
<g>
	<path d="M26.53,46.87H14.76l-0.15-0.2c-3.4-4.5-5.2-9.85-5.2-15.47c0-13.02,9.75-23.98,22.68-25.49l1.43-0.17l-3.94,3.93l3.99,3.98
		l-0.99,0.14c-8.71,1.23-15.27,8.8-15.27,17.59c0,5.92,2.94,11.43,7.87,14.75L26.53,46.87z M15.26,45.87h8.11
		c-4.45-3.56-7.07-8.93-7.07-14.67c0-8.96,6.45-16.71,15.16-18.42l-3.3-3.3l2.56-2.56C19.04,9.01,10.4,19.19,10.4,31.2
		C10.4,36.52,12.08,41.59,15.26,45.87z"/>
</g>
<g>
	<path d="M36.07,56.87H6.59l3.95-3.95L6.6,48.97h29.47c9.8,0,17.77-7.97,17.77-17.77c0-8.48-5.92-15.7-14.17-17.4v3.09l-7.42-7.41
		l7.42-7.41V5.8C52.29,7.57,61.74,18.42,61.74,31.2C61.74,45.35,50.23,56.87,36.07,56.87z M9.01,55.87h27.06
		c13.6,0,24.67-11.06,24.67-24.67c0-12.43-9.3-22.95-21.62-24.47l-0.44-0.05V4.48l-5,5l5,5v-1.88l0.58,0.1
		c9.03,1.55,15.58,9.33,15.58,18.5c0,10.35-8.42,18.77-18.77,18.77H9.01l2.95,2.95L9.01,55.87z"/>
</g>
</svg>
