<?xml version="1.0" encoding="utf-8"?>
<!-- Generator: Adobe Illustrator 23.0.1, SVG Export Plug-In . SVG Version: 6.00 Build 0)  -->
<svg version="1.1" id="Layer_1" xmlns="http://www.w3.org/2000/svg" xmlns:xlink="http://www.w3.org/1999/xlink" x="0px" y="0px"
	 viewBox="8.36 18.24 61.22 25.91" style="enable-background:new 8.36 18.24 61.22 25.91;" xml:space="preserve">
<g>
	<path d="M69.24,23.72c-1.92-2.87-11.64-5.82-24.31-5.45c-3.32,0.15-6.04,0.15-7.22,0.07c-1.18-0.07-0.81,1.33-0.44,1.47
		c0.37,0.07,1.18,1.55,5.89,1.4c4.64-0.15,12.23-1.03,16.58-0.07c0.96,0.15,9.28,2.21,8.25,4.13c-1.18,2.06-4.49,6.19-11.71,7.96
		c-4.94,1.25-15.18,2.73-19.96,2.65c-7.29-0.15-12.52-0.22-20.41-5.01c-3.54-2.14-7.96-9.65-7.51-5.6c0.74,5.75,6.11,7,6.63,7.22
		c2.65,1.4,8.91,4.86,21.29,5.08c5.97,0.07,12.52-1.03,18.34-2.36c3.17-0.66,3.17,0.37,4.27,3.61c0.22,0.44,0.37,1.4,0.96,1.4
		c0.59,0,1.18-1.55,1.33-2.14c0.88-2.14,1.03-5.01,3.02-6.63c2.58-2.06,4.57-4.49,5.08-5.45C69.68,25.27,69.68,24.46,69.24,23.72z"
		/>
	<path d="M49.35,43.25c0,0,3.68-0.59,4.49-0.81c0.81-0.22,2.5-1.18,2.14-3.98c-0.37-2.73-3.17-1.84-4.27-1.69
		c-1.03,0.15-4.49,0.74-4.49,0.74l1.4,0.81l3.61-0.66c1.55-0.22,2.87-0.22,3.09,1.03c0.15,0.88,0.15,1.33,0,1.69
		c0-0.52-0.07-0.74-0.22-1.33c-0.29-1.25-1.7-1.18-3.17-0.88l-2.8,0.44L49.35,43.25z"/>
	<path d="M35.35,38.16c-0.15,0.15-0.74,1.25-0.74,1.25l0.66,4.71l13.26-0.59l-0.29-4.71l-2.28-1.33
		C46.04,37.5,41.03,38.31,35.35,38.16z M46.92,41.55c0.29,0,0.59,0.29,0.59,0.59c0,0.29-0.29,0.59-0.59,0.59
		c-0.37,0-0.59-0.29-0.59-0.59C46.33,41.85,46.55,41.55,46.92,41.55z M46.77,39.78c0.29,0,0.59,0.22,0.59,0.59
		c0,0.29-0.29,0.59-0.59,0.59c-0.37,0-0.59-0.29-0.59-0.59C46.18,40,46.4,39.78,46.77,39.78z"/>
	<path d="M34.54,44.13l-0.59-4.79l0.81-1.25c0,0-7.22,0.15-14.51-2.5c-2.36,0.29-1.18,3.39,0.29,3.98
		C20.55,39.56,32.77,44.5,34.54,44.13z M21.94,37.06c0.74,0.29,1.18,0.96,1.03,1.47c-0.22,0.52-0.96,0.66-1.69,0.44
		c-0.74-0.29-1.18-0.96-1.03-1.47C20.47,36.98,21.21,36.84,21.94,37.06z"/>
</g>
</svg>
