<?xml version="1.0" encoding="utf-8"?>
<!-- Generator: Adobe Illustrator 23.0.1, SVG Export Plug-In . SVG Version: 6.00 Build 0)  -->
<svg version="1.1" id="Layer_1" xmlns="http://www.w3.org/2000/svg" xmlns:xlink="http://www.w3.org/1999/xlink" x="0px" y="0px"
	 viewBox="0 0 382.53 365.53" style="enable-background:new 0 0 382.53 365.53;" xml:space="preserve">
<g>
	<path d="M382.53,224.13v141.39h-82.02V233.54c0-33.18-11.83-55.74-41.51-55.74c-22.69,0-36.08,15.27-42.06,29.96
		c-2.15,5.29-2.8,12.7-2.8,20.02v137.73h-81.94c0,0,1.1-223.46,0-246.61h81.96v34.95c-0.11,0.29-0.35,0.53-0.47,0.85h0.47v-0.85
		c10.95-16.8,30.34-40.74,73.91-40.74C342.13,113.12,382.53,148.36,382.53,224.13L382.53,224.13z M46.4,0C18.36,0,0,18.39,0,42.65
		c0,23.61,17.82,42.62,45.34,42.62h0.5c28.66,0,46.41-19.02,46.41-42.62C91.69,18.39,74.5,0,46.4,0L46.4,0z M4.89,365.52h81.97
		V118.89H4.89V365.52z M4.89,365.52"/>
</g>
</svg>
