<?xml version="1.0" encoding="utf-8"?>
<!-- Generator: Adobe Illustrator 23.0.1, SVG Export Plug-In . SVG Version: 6.00 Build 0)  -->
<svg version="1.1" id="Layer_1" xmlns="http://www.w3.org/2000/svg" xmlns:xlink="http://www.w3.org/1999/xlink" x="0px" y="0px"
	 viewBox="24.65 4.37 28.7 53.66" style="enable-background:new 24.65 4.37 28.7 53.66;" xml:space="preserve">
<g transform="translate(0,-952.36218)">
	<path d="M28.39,956.73c-2.07,0-3.74,1.67-3.74,3.74v46.18c0,2.07,1.67,3.74,3.74,3.74h21.22c2.07,0,3.74-1.67,3.74-3.74v-46.18
		c0-2.07-1.67-3.74-3.74-3.74H28.39z M27.14,962.97h23.71v37.44H27.14V962.97z M39,1002.28c1.72,0,3.12,1.4,3.12,3.12
		c0,1.72-1.4,3.12-3.12,3.12c-1.72,0-3.12-1.4-3.12-3.12C35.88,1003.68,37.28,1002.28,39,1002.28z"/>
</g>
</svg>
