<?xml version="1.0" encoding="utf-8"?>
<!-- Generator: Adobe Illustrator 23.0.1, SVG Export Plug-In . SVG Version: 6.00 Build 0)  -->
<svg version="1.1" id="Layer_1" xmlns="http://www.w3.org/2000/svg" xmlns:xlink="http://www.w3.org/1999/xlink" x="0px" y="0px"
	 viewBox="13.01 1309 2565.97 2566" style="enable-background:new 13.01 1309 2565.97 2566;" xml:space="preserve">
<path d="M1735.07,2346.27h-242.92l15.46-17.38c26.14-29.38,47.49-60.35,63.45-92.06c16.02-31.81,25.76-62.66,28.95-91.72
	c3.79-34.5-6.84-68.71-29.17-93.86c-20.21-22.77-47.83-35.46-77.76-35.73c-0.27,0-0.52,0-0.77,0l-0.27,0
	c-29.06,0-56.39,11.22-76.94,31.59c-20.56,20.38-31.96,47.56-32.1,76.53l0,0.84l-0.14,0.83c-1.68,10.08-15.44,35.78-46.45,65.27
	c-25.3,24.07-68.97,57.14-133.37,78.05c-22.83,7.41-43.76,21.13-62.21,40.79c-9.83,10.46-25.79,26.31-46.03,42.41l-5.35,4.26
	l-6.04-3.2c-8.28-4.38-17.2-6.61-26.53-6.61H848.28c-31.39,0-56.93,25.54-56.93,56.92v556.31c0,31.39,25.54,56.93,56.93,56.93
	h208.62c20.63,0,39.71-11.27,49.79-29.4l2.98-5.37h538.48c50.56,0,91.69-41.13,91.69-91.69c0-16.41-4.4-32.52-12.74-46.58
	l-5.25-8.85l8.78-5.37c13.17-8.06,24.2-19.41,31.88-32.79c7.91-13.79,12.09-29.51,12.09-45.48c0-16.41-4.4-32.52-12.74-46.58
	l-5.25-8.85l8.78-5.37c27.53-16.86,43.97-46.12,43.97-78.27c0-18.51-5.52-36.37-15.95-51.63l-5.91-8.65l8.67-5.89
	c30.04-20.4,47.97-54.16,47.97-90.31C1844.15,2395.2,1795.22,2346.27,1735.07,2346.27z M1735.07,2520.11h-17.39
	c-12.22,0-22.16,9.94-22.16,22.16c0,12.22,9.94,22.16,22.16,22.16c26.13,0,47.38,21.26,47.38,47.39s-21.26,47.38-47.38,47.38h-34.77
	c-12.22,0-22.16,9.94-22.16,22.16c0,12.22,9.94,22.16,22.16,22.16c26.13,0,47.39,21.26,47.39,47.39s-21.26,47.38-47.39,47.38h-34.77
	c-12.22,0-22.16,9.94-22.16,22.16c0,12.22,9.94,22.16,22.16,22.16c26.13,0,47.39,21.26,47.39,47.38c0,26.13-21.26,47.38-47.39,47.38
	h-534.33v-325.54c0-12.22-9.94-22.16-22.16-22.16c-12.22,0-22.16,9.94-22.16,22.16v347.69c0,6.96-5.66,12.61-12.61,12.61H848.28
	c-6.95,0-12.61-5.66-12.61-12.61v-556.33c0-6.95,5.66-12.61,12.61-12.61h208.62c6.95,0,12.61,5.66,12.61,12.61v69.54
	c0,12.22,9.94,22.16,22.16,22.16s22.16-9.94,22.16-22.16v-69.54c0-0.99-0.08-2.11-0.17-3.3l-0.44-6.22l4.42-3.42
	c24.44-18.92,43.68-37.91,55.52-50.51c13.28-14.14,27.94-23.89,43.59-28.97c74.8-24.28,125.07-63.32,154.07-91.79
	c34.86-34.23,56.52-70.56,56.52-94.82c0-17.27,6.74-33.45,18.97-45.58c12.18-12.07,28.61-18.72,46.27-18.75
	c22.2,0.21,36.79,11.45,45.14,20.84c13.82,15.56,20.64,37.84,18.25,59.6c-7.41,67.37-60.7,150.16-135.77,210.93
	c-7.28,5.89-10.07,15.79-6.94,24.61c3.12,8.83,11.52,14.76,20.88,14.76h300.93c35.71,0,64.77,29.05,64.77,64.77
	C1799.83,2491.06,1770.78,2520.11,1735.07,2520.11z"/>
<g>
	<path d="M970.61,2836.99c-4.85-4.85-11.25-7.52-18.03-7.52c-14.08,0-25.54,11.46-25.54,25.54s11.46,25.54,25.54,25.54
		c14.08,0,25.54-11.46,25.54-25.54C978.13,2848.24,975.46,2841.84,970.61,2836.99z"/>
	<path d="M952.59,2883.77c-15.85,0-28.75-12.9-28.75-28.75s12.9-28.75,28.75-28.75c7.63,0,14.84,3,20.3,8.46
		c5.45,5.46,8.46,12.66,8.45,20.29C981.34,2870.87,968.44,2883.77,952.59,2883.77z M952.59,2832.69
		c-12.31,0-22.33,10.02-22.33,22.33s10.02,22.33,22.33,22.33c12.31,0,22.33-10.02,22.33-22.33c0-5.92-2.33-11.51-6.57-15.75
		C964.1,2835.02,958.51,2832.69,952.59,2832.69z"/>
</g>
<path d="M2577.22,2781.08L2505.76,2592l71.46-189.09c3.43-9.08,1.79-19.42-4.28-27l-126.39-157.75l9.53-201.91
	c0.46-9.7-4.3-19.03-12.41-24.35l-168.95-110.98l-0.4-1.46l-52.93-193.52c-2.56-9.36-9.97-16.77-19.33-19.33l-194.98-53.33
	l-110.98-168.95c-5.35-8.14-14.55-12.86-24.38-12.41l-201.89,9.53l-157.75-126.39c-4.88-3.91-11.01-6.06-17.26-6.06
	c-3.34,0-6.62,0.6-9.75,1.78L1296,1382.24l-189.08-71.45c-3.13-1.18-6.41-1.78-9.75-1.78c-6.25,0-12.37,2.15-17.25,6.06
	l-157.76,126.39l-201.92-9.53c-9.84-0.47-19,4.25-24.35,12.41l-110.98,168.95l-194.98,53.33c-9.36,2.56-16.77,9.97-19.33,19.32
	l-53.33,194.98l-168.95,110.98c-8.11,5.33-12.87,14.66-12.41,24.35l9.53,201.92L19.07,2375.92c-6.07,7.58-7.71,17.92-4.28,27
	L86.24,2592l-71.46,189.08c-3.43,9.08-1.8,19.42,4.28,27l126.39,157.75l-0.07,1.51l-9.46,200.41c-0.46,9.7,4.29,19.03,12.41,24.35
	l168.95,110.98l53.33,194.98c2.56,9.36,9.97,16.77,19.32,19.33l194.98,53.33l110.97,168.95c5.34,8.14,14.55,12.85,24.39,12.41
	l201.88-9.52l1.18,0.94l156.57,125.44c4.88,3.91,11,6.06,17.25,6.06c3.34,0,6.62-0.6,9.74-1.78l189.09-71.46l1.41,0.54l187.67,70.92
	c3.13,1.18,6.41,1.78,9.75,1.78c6.25,0,12.38-2.15,17.25-6.06l157.75-126.39l1.51,0.07l200.41,9.46c0.39,0.02,0.8,0.03,1.22,0.03
	c9.37,0,18.02-4.65,23.14-12.44l110.98-168.95l194.98-53.33c9.36-2.56,16.77-9.97,19.33-19.32l53.33-194.98l1.26-0.83l167.69-110.15
	c8.11-5.33,12.87-14.66,12.41-24.35l-9.53-201.92l126.39-157.75C2579.01,2800.51,2580.65,2790.16,2577.22,2781.08z M2396.98,2939.48
	c-4.21,5.24-6.35,11.83-6.03,18.55l9.28,196.61l-1.91,1.25l-162.6,106.81c-5.62,3.69-9.69,9.29-11.47,15.78l-51.93,189.86
	l-189.85,51.93c-6.48,1.77-12.09,5.85-15.78,11.47l-108.06,164.5l-196.61-9.28c-0.42-0.02-0.84-0.03-1.27-0.03
	c-6.27,0-12.4,2.15-17.27,6.06l-153.61,123.07l-184.12-69.58c-6.22-2.35-13.27-2.35-19.52,0l-184.1,69.57l-153.61-123.07
	c-5.19-4.16-11.83-6.33-18.56-6.03l-196.59,9.28l-108.06-164.51c-3.69-5.62-9.29-9.69-15.78-11.47l-189.86-51.93l-51.93-189.85
	c-1.77-6.48-5.85-12.09-11.47-15.78l-164.5-108.06l9.28-196.61c0.32-6.72-1.82-13.3-6.03-18.54L71.95,2785.87l69.58-184.12
	c2.38-6.29,2.38-13.21,0-19.5l-69.58-184.12l123.07-153.61c4.21-5.24,6.35-11.83,6.03-18.55l-9.28-196.61l164.51-108.06
	c5.62-3.69,9.69-9.29,11.47-15.78l51.93-189.86l189.85-51.93c6.48-1.77,12.09-5.85,15.78-11.47l108.06-164.5l196.61,9.28
	c0.43,0.02,0.85,0.03,1.28,0.03c6.26,0,12.39-2.15,17.26-6.06l153.61-123.07l184.12,69.58c6.22,2.35,13.28,2.35,19.5,0l184.12-69.58
	l153.61,123.07c5.21,4.18,11.86,6.35,18.54,6.03l196.61-9.28l108.06,164.51c3.69,5.62,9.29,9.69,15.78,11.47l189.86,51.93
	l51.93,189.86c1.77,6.48,5.85,12.08,11.47,15.78l164.5,108.06l-0.11,2.28l-9.17,194.33c-0.32,6.71,1.82,13.3,6.03,18.54
	l123.07,153.61l-69.58,184.12c-2.37,6.29-2.37,13.22,0.01,19.5l69.58,184.12L2396.98,2939.48z"/>
<path d="M2049.01,1900.01c-10.05-10.94-20.4-21.74-30.76-32.1c-10.5-10.5-21.3-20.85-32.11-30.77c-5.1-4.68-11.72-7.26-18.64-7.26
	c-7.71,0-15.12,3.26-20.33,8.93c-4.98,5.43-7.55,12.47-7.24,19.83c0.32,7.36,3.48,14.16,8.91,19.14c10.34,9.5,20.57,19.3,30.4,29.13
	c9.83,9.84,19.64,20.06,29.13,30.4c5.21,5.68,12.62,8.93,20.34,8.93c6.92,0,13.54-2.58,18.64-7.26c5.43-4.98,8.59-11.78,8.91-19.14
	C2056.56,1912.48,2053.99,1905.44,2049.01,1900.01z"/>
<path d="M1293.91,1623.42c91.65,0,182.82,12.93,270.97,38.44c88.51,25.61,172.38,63.45,249.3,112.45c4.44,2.83,9.56,4.33,14.79,4.33
	c9.49,0,18.2-4.77,23.29-12.77c8.17-12.83,4.39-29.91-8.44-38.09c-81.3-51.79-169.97-91.79-263.55-118.87
	c-93.22-26.97-189.6-40.65-286.49-40.65c-35.02,0-70.39,1.82-105.12,5.42c-232.57,24.09-451.88,128.59-617.52,294.23
	c-182.3,182.3-288.44,424.47-298.86,681.9c-10.36,255.93,74.4,504.39,238.67,699.62c5.25,6.24,12.95,9.82,21.13,9.82
	c6.47,0,12.77-2.3,17.74-6.48c11.63-9.79,13.13-27.23,3.34-38.86c-155.39-184.68-235.57-419.74-225.77-661.87
	c9.86-243.55,110.28-472.66,282.75-645.12c156.71-156.72,364.18-255.57,584.2-278.36
	C1227.24,1625.15,1260.74,1623.42,1293.91,1623.42z"/>
<path d="M2312.49,2697.49c23.74-229.24-31-461.92-154.12-655.16c-5.09-8-13.81-12.77-23.31-12.77c-5.23,0-10.34,1.5-14.78,4.32
	c-6.22,3.96-10.52,10.1-12.11,17.3c-1.59,7.19-0.29,14.57,3.67,20.79c116.46,182.8,168.22,402.93,145.76,619.83
	c-22.79,220-121.64,427.48-278.36,584.2c-172.47,172.47-401.58,272.88-645.12,282.75c-13.21,0.54-26.6,0.81-39.79,0.81
	c-113.53,0-224.92-19.58-331.06-58.21c-106.3-38.68-204.21-95.33-291.01-168.36c-4.96-4.18-11.26-6.48-17.73-6.48
	c-8.17,0-15.87,3.58-21.13,9.83c-4.74,5.64-7.01,12.78-6.38,20.12c0.63,7.34,4.09,14,9.73,18.74
	c91.78,77.22,195.29,137.11,307.66,177.99c112.2,40.83,229.97,61.53,350.02,61.53c13.87,0,27.98-0.29,41.95-0.85
	c257.42-10.42,499.59-116.56,681.9-298.86C2183.91,3149.37,2288.4,2930.06,2312.49,2697.49z"/>
</svg>
