<?xml version="1.0" encoding="utf-8"?>
<!-- Generator: Adobe Illustrator 23.0.1, SVG Export Plug-In . SVG Version: 6.00 Build 0)  -->
<svg version="1.1" id="Layer_1" xmlns="http://www.w3.org/2000/svg" xmlns:xlink="http://www.w3.org/1999/xlink" x="0px" y="0px"
	 viewBox="17 1382.43 2558 2419.14" style="enable-background:new 17 1382.43 2558 2419.14;" xml:space="preserve">
<g>
	<g>
		<g>
			<path d="M2575,2684.57c0-96.1-36.66-187.59-103.22-257.61c-66.33-69.78-155.48-111.16-251.01-116.53l-16.05-0.9v-16.07
				c0-123.29-24.02-242.78-71.38-355.15c-45.74-108.51-111.25-205.92-194.71-289.52c-83.42-83.56-180.6-149.15-288.83-194.95
				c-111.99-47.39-231.02-71.41-353.79-71.41c-122.74,0-241.77,24.01-353.79,71.38c-108.22,45.75-205.4,111.26-288.84,194.7
				c-83.45,83.45-148.95,180.62-194.7,288.84c-47.36,112.02-71.38,231.06-71.38,353.79v18.39l-16.05,0.9
				c-95.54,5.37-184.68,46.75-251.01,116.53C53.66,2496.98,17,2588.47,17,2684.57v46.29c0,100.67,39.12,195.24,110.16,266.27
				c71.03,71.04,165.6,110.16,266.27,110.16h30.22l169.31,269.47c27.86,44.57,60.94,85.19,98.35,120.76
				c36.88,35.06,78.03,65.27,122.29,89.8c44.24,24.52,91.63,43.37,140.86,56.05c49.87,12.84,101.71,19.35,154.07,19.35h45.49
				l3.35,12.65c9.31,35.17,30.25,67.13,58.96,89.99c29.76,23.7,65.31,36.22,102.81,36.22c44.71,0,86.88-17.55,118.74-49.41
				c31.86-31.86,49.41-74.03,49.41-118.74s-17.55-86.88-49.41-118.74c-31.86-31.86-74.03-49.41-118.74-49.41
				c-37.5,0-73.05,12.52-102.81,36.22c-28.71,22.86-49.65,54.82-58.95,89.99l-3.35,12.65h-45.49c-93.65,0-185.95-23.96-266.92-69.28
				c-80.79-45.22-149.53-111.26-198.78-190.98l-150.8-236.6h63.4c41.67,0,75.57-33.9,75.57-75.57v-648
				c0-41.67-33.9-75.57-75.57-75.57H445.86v-17c0-114.87,22.46-226.26,66.76-331.09c42.79-101.26,104.05-192.17,182.09-270.21
				c78.04-78.04,168.95-139.3,270.21-182.09c104.83-44.3,216.22-66.75,331.09-66.75s226.26,22.46,331.09,66.75
				c101.26,42.79,192.17,104.05,270.21,182.09c78.04,78.04,139.31,168.95,182.09,270.21c44.29,104.83,66.75,216.22,66.75,331.09v17
				h-109.57c-41.67,0-75.57,33.9-75.57,75.57v648c0,41.67,33.9,75.57,75.57,75.57h162c100.67,0,195.24-39.12,266.27-110.16
				c71.04-71.03,110.16-165.6,110.16-266.27V2684.57z M1319.14,3523.86c60.42,0,109.57,49.15,109.57,109.57
				S1379.56,3743,1319.14,3743s-109.57-49.15-109.57-109.57S1258.72,3523.86,1319.14,3523.86z M572.43,2366.71v682h-179
				c-85.13,0-165.01-33-224.93-92.92c-59.92-59.92-92.92-139.8-92.92-224.93v-46.29c0-85.13,33-165.01,92.92-224.94
				c59.92-59.92,139.8-92.92,224.93-92.92H572.43z M2516.43,2730.86c0,85.13-33,165.01-92.92,224.93
				c-59.92,59.92-139.8,92.92-224.93,92.92h-179v-682h179c85.13,0,165.01,33,224.93,92.92c59.92,59.92,92.92,139.81,92.92,224.94
				V2730.86z"/>
			<path d="M1671.88,1729.74c-5.48-2.83-12.37-7.42-19.65-12.28c-6.1-4.06-13-8.67-16.68-10.51l-0.95-0.47l-0.88-0.59
				c-4.19-2.79-9.17-4.27-14.41-4.27c-10.16,0-19.14,5.34-23.44,13.93c-3.08,6.15-11.46,27.17,9.29,40.03
				c5.47,2.83,12.36,7.42,19.64,12.27c6.17,4.12,12,8,16.78,9.59l2.16,0.72l1.9,1.26c3.98,2.66,10.04,4.09,13.71,4.09
				c11.06,0,18.85-4.6,24.53-14.49C1691.22,1755.68,1685.96,1738.48,1671.88,1729.74z"/>
			<path d="M1296,1672.43c42.58,0,85.75,4.78,128.3,14.21c1.79,0.31,3.6,0.47,5.38,0.47c13.85,0,26.42-9.62,30.55-23.39
				c1.8-6,0.38-12.97-4-19.63c-4.49-6.84-11.55-12.29-18.9-14.62c-44.32-10.5-90.55-15.61-141.33-15.61
				c-190.95,0-371.83,83.04-496.25,227.82c-9.97,11.39-8.76,30.23,2.49,40.53c7.56,5.58,13,7.76,19.33,7.76
				c9.65,0,15.86-2.85,21.44-9.82l0.47-0.56C958.38,1747.94,1123.31,1672.43,1296,1672.43z"/>
		</g>
	</g>
</g>
</svg>
