<?xml version="1.0" encoding="utf-8"?>
<!-- Generator: Adobe Illustrator 23.0.1, SVG Export Plug-In . SVG Version: 6.00 Build 0)  -->
<svg version="1.1" id="Layer_1" xmlns="http://www.w3.org/2000/svg" xmlns:xlink="http://www.w3.org/1999/xlink" x="0px" y="0px"
	 viewBox="11.54 9.36 54.91 43.68" style="enable-background:new 11.54 9.36 54.91 43.68;" xml:space="preserve">
<g transform="translate(0,-952.36218)">
	<path d="M17.9,961.72c-3.49,0-6.36,2.87-6.36,6.36v30.97c0,3.51,2.87,6.36,6.36,6.36h42.2c3.49,0,6.36-2.85,6.36-6.36v-30.97
		c0-3.49-2.86-6.36-6.36-6.36H17.9z M24.3,966.17c0.05,0,0.09,0,0.14,0h36.8c0.76-0.01,1.38,0.61,1.38,1.37c0,0.01,0,0.01,0,0.02
		v32.06c-0.01,0.76-0.63,1.37-1.38,1.37h-36.8c-0.76,0.01-1.38-0.6-1.38-1.37v-32.06C23.04,966.84,23.59,966.23,24.3,966.17
		L24.3,966.17z M17.32,979.49c2.1,0,3.86,1.74,3.86,3.86c0,2.12-1.75,3.86-3.86,3.86c-2.11,0-3.82-1.76-3.82-3.86
		C13.49,981.24,15.22,979.49,17.32,979.49z"/>
	<path d="M17.32,982.25c0.63,0,1.11,0.48,1.11,1.09c0,0.61-0.5,1.11-1.11,1.11c-0.61,0-1.08-0.48-1.08-1.11
		S16.69,982.25,17.32,982.25z"/>
</g>
</svg>
