<?xml version="1.0" encoding="utf-8"?>
<!-- Generator: Adobe Illustrator 23.0.1, SVG Export Plug-In . SVG Version: 6.00 Build 0)  -->
<svg version="1.1" id="Layer_1" xmlns="http://www.w3.org/2000/svg" xmlns:xlink="http://www.w3.org/1999/xlink" x="0px" y="0px"
	 viewBox="0 0 12.8 10.4" style="enable-background:new 0 0 12.8 10.4;" xml:space="preserve">
<g>
	<path d="M12.8,1.23c-0.47,0.21-0.98,0.35-1.51,0.42c0.54-0.33,0.96-0.84,1.16-1.45c-0.51,0.3-1.07,0.52-1.67,0.64
		C10.3,0.32,9.62,0,8.86,0C7.41,0,6.24,1.18,6.24,2.63c0,0.21,0.02,0.41,0.07,0.6C4.12,3.11,2.19,2.07,0.89,0.48
		C0.66,0.87,0.53,1.32,0.53,1.8C0.53,2.71,1,3.52,1.7,3.98C1.27,3.97,0.87,3.85,0.52,3.66v0.03c0,1.27,0.91,2.33,2.1,2.58
		C2.4,6.32,2.17,6.36,1.93,6.36c-0.17,0-0.33-0.01-0.5-0.05c0.34,1.04,1.3,1.8,2.45,1.82c-0.9,0.7-2.03,1.12-3.26,1.12
		C0.41,9.25,0.21,9.24,0,9.22c1.16,0.75,2.54,1.18,4.03,1.18c4.83,0,7.47-4,7.47-7.47l-0.01-0.34C12,2.22,12.45,1.76,12.8,1.23
		L12.8,1.23z M12.8,1.23"/>
</g>
</svg>
