<?xml version="1.0" encoding="utf-8"?>
<!-- Generator: Adobe Illustrator 23.0.1, SVG Export Plug-In . SVG Version: 6.00 Build 0)  -->
<svg version="1.1" id="Layer_1" xmlns="http://www.w3.org/2000/svg" xmlns:xlink="http://www.w3.org/1999/xlink" x="0px" y="0px"
	 viewBox="21.16 0.78 38.34 60.68" style="enable-background:new 21.16 0.78 38.34 60.68;" xml:space="preserve">
<path d="M49.35,10.82H26.8c-3.12,0-5.64,2.52-5.64,5.64v29.32c0,3.11,2.52,5.64,5.64,5.64h22.55c3.11,0,5.64-2.53,5.64-5.64V16.46
	C54.99,13.35,52.46,10.82,49.35,10.82z M51.61,45.78c0,1.25-1.01,2.25-2.25,2.25H26.8c-1.25,0-2.26-1.01-2.26-2.25V16.46
	c0-1.25,1.01-2.26,2.26-2.26h22.55c1.25,0,2.25,1.01,2.25,2.26V45.78L51.61,45.78z M49.35,4.16c0,0,0-3.38-3.38-3.38H30.18
	c-3.38,0-3.38,3.38-3.38,3.38v4.41h22.55V4.16L49.35,4.16z M57.81,27.74c-0.93,0-1.69,0.76-1.69,1.69v3.38
	c0,0.93,0.76,1.69,1.69,1.69c0.93,0,1.69-0.76,1.69-1.69v-3.38C59.5,28.5,58.74,27.74,57.81,27.74z M26.8,58.08
	c0,0,0,3.38,3.38,3.38h15.79c3.38,0,3.38-3.38,3.38-3.38v-4.41H26.8V58.08z"/>
</svg>
